<svg width="57" height="56" viewBox="0 0 57 56" fill="none" xmlns="http://www.w3.org/2000/svg">
<path d="M28.8663 0.00488281C13.4286 0.00488281 0.868774 12.5636 0.868774 27.9999C0.868774 43.4362 13.4286 55.9949 28.8663 55.9949C44.3039 55.9949 56.8638 43.4362 56.8638 27.9999C56.8638 12.5636 44.3039 0.00488281 28.8663 0.00488281ZM22.1065 15.7278C23.8119 13.9203 26.2119 12.9257 28.8663 12.9257C31.5206 12.9257 33.8991 13.927 35.6112 15.744C37.3463 17.5852 38.1902 20.059 37.991 22.7185C37.5926 27.9999 33.5007 32.3068 28.8663 32.3068C24.2319 32.3068 20.1319 27.9999 19.7415 22.7172C19.5436 20.0361 20.3863 17.5543 22.1065 15.7278ZM28.8663 51.688C25.7037 51.6901 22.5729 51.0571 19.6596 49.8267C16.7463 48.5963 14.1097 46.7934 11.9062 44.525C13.1682 42.7255 14.7762 41.1954 16.6362 40.0243C20.0673 37.8251 24.4096 36.6137 28.8663 36.6137C33.323 36.6137 37.6653 37.8251 41.0923 40.0243C42.9538 41.1949 44.5632 42.725 45.8263 44.525C43.623 46.7936 40.9865 48.5967 38.0731 49.8271C35.1597 51.0576 32.0289 51.6904 28.8663 51.688Z" fill="#81007F"/>
</svg>
