<svg width="117" height="117" viewBox="0 0 117 117" fill="none" xmlns="http://www.w3.org/2000/svg">
<g filter="url(#filter0_d_1_2297)">
<path d="M72.0276 46.8235V77.2107H67.7617V84.5817L60.3931 77.2107H19.9438V46.8235H72.0276Z" fill="white"/>
<path d="M72.0274 46.8234C71.997 46.9942 72.1889 77.2013 72.1678 77.3487H72.0274L67.7616 77.3604L67.9137 77.2083L67.9371 84.5793V84.9982L67.6399 84.708L60.2502 77.3557C61.0084 77.5359 19.7682 77.3791 19.9437 77.4446H19.7097V77.2106L19.7401 46.8234V46.6245H19.939C32.9237 46.669 59.0428 46.7485 72.0228 46.8234H72.0274ZM72.0274 46.8234C59.0475 46.903 32.919 46.9825 19.9437 47.0247L20.1426 46.8234L20.173 77.22L19.939 76.986L60.4702 77.0141L60.5287 77.0726L67.881 84.4623L67.5838 84.5863L67.6048 77.2153V77.0609H67.7569L72.0228 77.0726C71.6507 77.9314 72.1374 46.6526 72.0228 46.8258L72.0274 46.8234Z" fill="#EBEBEB"/>
<path d="M36.1388 62.0101C36.1393 62.4985 35.9948 62.9761 35.7237 63.3825C35.4527 63.7888 35.0671 64.1056 34.6159 64.2927C34.1647 64.4799 33.6682 64.529 33.1891 64.4338C32.71 64.3386 32.2699 64.1034 31.9245 63.758C31.5791 63.4126 31.3439 62.9725 31.2487 62.4934C31.1536 62.0143 31.2026 61.5178 31.3898 61.0666C31.5769 60.6154 31.8937 60.2299 32.3 59.9588C32.7064 59.6877 33.184 59.5432 33.6725 59.5437C34.3266 59.5437 34.9539 59.8035 35.4164 60.2661C35.879 60.7286 36.1388 61.3559 36.1388 62.0101Z" fill="#EBEBEB"/>
<path d="M48.4542 62.0101C48.4547 62.4984 48.3103 62.9759 48.0393 63.3822C47.7684 63.7885 47.383 64.1053 46.9319 64.2925C46.4808 64.4797 45.9844 64.5289 45.5054 64.4339C45.0263 64.339 44.5862 64.104 44.2407 63.7589C43.8953 63.4137 43.6599 62.9738 43.5645 62.4949C43.469 62.0159 43.5178 61.5194 43.7045 61.0682C43.8913 60.617 44.2077 60.2313 44.6138 59.9599C45.0198 59.6885 45.4972 59.5437 45.9855 59.5437C46.6399 59.5437 47.2674 59.8035 47.7304 60.2659C48.1933 60.7284 48.4536 61.3557 48.4542 62.0101Z" fill="#EBEBEB"/>
<path d="M60.7697 62.0101C60.7701 62.4984 60.6257 62.9759 60.3548 63.3822C60.0838 63.7885 59.6984 64.1053 59.2473 64.2925C58.7963 64.4797 58.2998 64.5289 57.8208 64.4339C57.3418 64.339 56.9017 64.104 56.5562 63.7589C56.2107 63.4137 55.9753 62.9738 55.8799 62.4949C55.7844 62.0159 55.8332 61.5194 56.02 61.0682C56.2068 60.617 56.5232 60.2313 56.9292 59.9599C57.3352 59.6885 57.8126 59.5437 58.301 59.5437C58.9553 59.5437 59.5829 59.8035 60.0458 60.2659C60.5087 60.7284 60.7691 61.3557 60.7697 62.0101Z" fill="#EBEBEB"/>
<path d="M62.0193 12.2054V33.097H64.9513V38.1631L70.0197 33.097H97.826V12.2054H62.0193Z" fill="white"/>
<path d="M62.01 12.2055C62.0639 18.1327 62.1153 27.24 62.1504 33.097L62.01 32.9566L64.9421 32.9426H65.0941V33.097L65.1152 38.1631L64.818 38.0391L69.8677 32.9543L69.9262 32.8958C69.9918 32.9262 97.7418 32.8466 97.8167 32.8677L97.5827 33.1017L97.6131 12.2102L97.812 12.4091C88.8873 12.3833 70.9301 12.2734 62.01 12.2102V12.2055ZM62.01 12.2055C70.9325 12.1447 88.8966 12.0347 97.812 12.0066H98.0133V12.2078L98.0414 33.0994V33.3334H97.8074C97.8284 33.2468 69.4934 33.434 70.1415 33.2468L65.0754 38.2871L64.7759 38.582V38.1631L64.797 33.097L64.9491 33.2491L62.01 33.2281H61.8696V33.09C61.8696 27.24 61.9843 18.114 62.01 12.1985V12.2055Z" fill="#EBEBEB"/>
<path d="M69.6384 24.0505V21.2425C69.6381 21.2083 69.6446 21.1744 69.6576 21.1427C69.6705 21.1111 69.6896 21.0823 69.7138 21.0581C69.738 21.034 69.7668 21.0148 69.7984 21.0019C69.8301 20.989 69.864 20.9824 69.8982 20.9828C69.9329 20.9818 69.9674 20.9878 69.9997 21.0005C70.0321 21.0131 70.0615 21.0321 70.0864 21.0563C70.1113 21.0805 70.131 21.1095 70.1445 21.1415C70.158 21.1734 70.165 21.2078 70.1649 21.2425V22.3797H71.3934V21.2519C71.3928 21.2176 71.3991 21.1835 71.4119 21.1517C71.4247 21.1199 71.4439 21.091 71.4681 21.0668C71.4923 21.0425 71.5212 21.0234 71.553 21.0106C71.5848 20.9978 71.6189 20.9915 71.6532 20.9921C71.6879 20.9912 71.7224 20.9972 71.7547 21.0098C71.7871 21.0225 71.8165 21.0415 71.8414 21.0657C71.8663 21.0899 71.886 21.1188 71.8995 21.1508C71.913 21.1828 71.92 21.2172 71.9199 21.2519V24.0599C71.9196 24.0945 71.9125 24.1287 71.8989 24.1605C71.8853 24.1924 71.8655 24.2212 71.8407 24.2453C71.8159 24.2695 71.7866 24.2885 71.7544 24.3012C71.7222 24.314 71.6878 24.3202 71.6532 24.3196C71.619 24.3199 71.5851 24.3134 71.5534 24.3005C71.5218 24.2875 71.493 24.2684 71.4688 24.2442C71.4446 24.22 71.4255 24.1913 71.4126 24.1596C71.3996 24.128 71.3931 24.0941 71.3934 24.0599V22.9109H70.1649V24.0505C70.1646 24.0851 70.1575 24.1193 70.1439 24.1512C70.1303 24.183 70.1105 24.2118 70.0857 24.236C70.0609 24.2601 70.0316 24.2791 69.9994 24.2919C69.9672 24.3046 69.9328 24.3109 69.8982 24.3102C69.864 24.3106 69.8301 24.304 69.7984 24.2911C69.7668 24.2782 69.738 24.259 69.7138 24.2349C69.6896 24.2107 69.6705 24.1819 69.6576 24.1503C69.6446 24.1186 69.6381 24.0847 69.6384 24.0505Z" fill="#EBEBEB"/>
<path d="M74.3863 23.5287H73.2421L73.0081 24.1441C72.9884 24.1932 72.9545 24.2353 72.9107 24.2649C72.8669 24.2945 72.8152 24.3103 72.7624 24.3103C72.7314 24.3104 72.7006 24.3056 72.6711 24.2962C72.6059 24.2705 72.5532 24.2206 72.524 24.1569C72.4948 24.0933 72.4913 24.0208 72.5143 23.9546L73.5626 21.163C73.583 21.113 73.6181 21.0703 73.6632 21.0406C73.7083 21.011 73.7614 20.9957 73.8154 20.9968C73.8692 20.9952 73.9222 21.0103 73.967 21.04C74.0119 21.0698 74.0464 21.1127 74.0657 21.163L75.1141 23.9546C75.1377 24.0207 75.1345 24.0935 75.1052 24.1573C75.0759 24.2212 75.0228 24.271 74.9573 24.2962C74.8929 24.3179 74.8227 24.3143 74.761 24.286C74.6993 24.2577 74.6506 24.207 74.625 24.1441L74.3863 23.5287ZM74.1921 23.0069L73.8083 21.996L73.4246 23.0162L74.1921 23.0069Z" fill="#EBEBEB"/>
<path d="M77.1802 24.0506V21.2426C77.1811 21.208 77.1889 21.1739 77.2033 21.1424C77.2177 21.1108 77.2382 21.0825 77.2638 21.0592C77.2894 21.0358 77.3194 21.0178 77.3521 21.0063C77.3847 20.9948 77.4194 20.99 77.454 20.9922C77.4885 20.9916 77.5228 20.9979 77.5548 21.0106C77.5869 21.0234 77.6161 21.0424 77.6407 21.0666C77.6653 21.0908 77.6848 21.1197 77.6982 21.1515C77.7115 21.1833 77.7184 21.2175 77.7184 21.252V22.3892H78.9469V21.252C78.9466 21.2178 78.9531 21.1839 78.966 21.1522C78.979 21.1205 78.9981 21.0918 79.0223 21.0676C79.0465 21.0434 79.0752 21.0243 79.1069 21.0114C79.1385 20.9984 79.1724 20.9919 79.2066 20.9922C79.2413 20.9913 79.2759 20.9973 79.3082 21.0099C79.3405 21.0226 79.37 21.0416 79.3949 21.0658C79.4197 21.09 79.4395 21.1189 79.453 21.1509C79.4665 21.1829 79.4734 21.2173 79.4734 21.252V24.06C79.4731 24.0946 79.4659 24.1288 79.4523 24.1606C79.4387 24.1925 79.419 24.2213 79.3942 24.2454C79.3694 24.2696 79.34 24.2886 79.3078 24.3013C79.2756 24.3141 79.2412 24.3203 79.2066 24.3197C79.1724 24.32 79.1385 24.3135 79.1069 24.3006C79.0752 24.2876 79.0465 24.2685 79.0223 24.2443C78.9981 24.2201 78.979 24.1914 78.966 24.1597C78.9531 24.1281 78.9466 24.0942 78.9469 24.06V22.911H77.7184V24.0506C77.7181 24.085 77.711 24.119 77.6976 24.1507C77.6841 24.1824 77.6645 24.2111 77.64 24.2352C77.6154 24.2594 77.5864 24.2784 77.5545 24.2913C77.5225 24.3042 77.4884 24.3107 77.454 24.3103C77.4186 24.3126 77.3832 24.3075 77.3499 24.2955C77.3166 24.2834 77.2861 24.2646 77.2604 24.2402C77.2347 24.2158 77.2143 24.1864 77.2005 24.1538C77.1867 24.1212 77.1798 24.086 77.1802 24.0506Z" fill="#EBEBEB"/>
<path d="M81.928 23.5288H80.7768L80.5428 24.1442C80.5227 24.1935 80.4884 24.2356 80.4442 24.2652C80.4 24.2948 80.3479 24.3105 80.2947 24.3103C80.2645 24.3106 80.2345 24.3059 80.2058 24.2963C80.1399 24.2716 80.0864 24.2218 80.057 24.1578C80.0277 24.0938 80.0248 24.0208 80.049 23.9546L81.095 21.163C81.1154 21.113 81.1504 21.0703 81.1955 21.0407C81.2407 21.011 81.2937 20.9957 81.3477 20.9969C81.4016 20.9949 81.4548 21.0098 81.4997 21.0396C81.5446 21.0694 81.579 21.1126 81.5981 21.163L82.6464 23.9546C82.67 24.0208 82.6669 24.0935 82.6376 24.1574C82.6083 24.2212 82.5552 24.2711 82.4896 24.2963C82.4611 24.3062 82.431 24.311 82.4007 24.3103C82.3496 24.309 82.3001 24.2925 82.2584 24.2629C82.2168 24.2333 82.1848 24.192 82.1667 24.1442L81.928 23.5288ZM81.7338 23.0069L81.3501 21.9961L80.964 23.0069H81.7338Z" fill="#EBEBEB"/>
<path d="M84.7244 24.0505V21.2425C84.7238 21.2082 84.7301 21.1742 84.7429 21.1424C84.7557 21.1106 84.7748 21.0817 84.7991 21.0574C84.8233 21.0332 84.8522 21.0141 84.884 21.0012C84.9158 20.9884 84.9499 20.9821 84.9841 20.9828C85.0188 20.9818 85.0534 20.9878 85.0857 21.0005C85.118 21.0131 85.1475 21.0321 85.1724 21.0563C85.1972 21.0805 85.217 21.1095 85.2305 21.1415C85.244 21.1734 85.2509 21.2078 85.2509 21.2425V22.3797H86.4771V21.2519C86.4833 21.1863 86.5137 21.1255 86.5623 21.0811C86.611 21.0368 86.6745 21.0123 86.7403 21.0123C86.8061 21.0123 86.8696 21.0368 86.9183 21.0811C86.967 21.1255 86.9974 21.1863 87.0036 21.2519V24.0599C86.9974 24.1254 86.967 24.1863 86.9183 24.2306C86.8696 24.2749 86.8061 24.2994 86.7403 24.2994C86.6745 24.2994 86.611 24.2749 86.5623 24.2306C86.5137 24.1863 86.4833 24.1254 86.4771 24.0599V22.9109H85.2509V24.0505C85.2506 24.0851 85.2434 24.1193 85.2298 24.1512C85.2162 24.183 85.1965 24.2118 85.1717 24.236C85.1469 24.2601 85.1175 24.2791 85.0853 24.2919C85.0531 24.3046 85.0188 24.3109 84.9841 24.3102C84.9499 24.3106 84.916 24.304 84.8844 24.2911C84.8527 24.2782 84.824 24.259 84.7998 24.2349C84.7756 24.2107 84.7565 24.1819 84.7435 24.1503C84.7306 24.1186 84.7241 24.0847 84.7244 24.0505Z" fill="#EBEBEB"/>
<path d="M89.4722 23.5287H88.3186L88.0846 24.1441C88.065 24.1932 88.031 24.2352 87.9872 24.2649C87.9434 24.2945 87.8918 24.3103 87.8389 24.3102C87.8079 24.3107 87.7771 24.306 87.7476 24.2962C87.6821 24.271 87.629 24.2211 87.5997 24.1573C87.5704 24.0934 87.5673 24.0207 87.5909 23.9545L88.6392 21.1629C88.6591 21.1131 88.6938 21.0705 88.7385 21.0408C88.7832 21.0112 88.8359 20.9958 88.8896 20.9968C88.9438 20.9946 88.9973 21.0095 89.0426 21.0393C89.0879 21.0691 89.1228 21.1123 89.1423 21.1629L90.1883 23.9545C90.2047 23.9943 90.2109 24.0375 90.2064 24.0802C90.2018 24.123 90.1866 24.1639 90.1622 24.1992C90.1378 24.2346 90.1049 24.2633 90.0665 24.2827C90.0281 24.3021 89.9855 24.3115 89.9426 24.3102C89.8913 24.3095 89.8415 24.2933 89.7997 24.2636C89.7579 24.2339 89.7261 24.1922 89.7086 24.1441L89.4722 23.5287ZM89.2757 23.0068L88.8919 21.996L88.5081 23.0162L89.2757 23.0068Z" fill="#EBEBEB"/>
<path fill-rule="evenodd" clip-rule="evenodd" d="M15.4204 42.2651C15.1864 42.4055 14.9969 42.6115 14.6927 42.5834C14.5757 42.5693 14.6014 42.6676 14.6014 42.7308C14.6014 43.8704 14.6014 45.01 14.5874 46.1495C14.5874 46.2338 14.5874 46.3016 14.681 46.3461C15.5515 46.7884 15.9259 47.6542 16.4571 48.3936C16.7299 48.7612 16.9259 49.1801 17.0332 49.6252C17.1405 50.0702 17.1571 50.5324 17.0818 50.984C17.0444 51.239 17.1637 51.356 17.3954 51.4075C17.5111 51.4483 17.6368 51.4507 17.7539 51.4145C17.8711 51.3782 17.9735 51.3052 18.0459 51.2063C18.2983 50.7413 18.4685 50.2362 18.549 49.7134C18.6005 49.2805 18.4461 48.8593 18.3946 48.431C18.3548 48.1175 18.2846 47.8086 18.2261 47.495C18.301 47.4389 18.3899 47.467 18.4718 47.467H21.3617C21.7689 47.467 21.9678 47.3523 22.0239 47.0832C22.0557 46.9172 22.0322 46.7454 21.957 46.5941C21.8817 46.4428 21.7589 46.3203 21.6074 46.2455C21.5349 46.2104 21.4062 46.2455 21.3968 46.1285C21.3874 46.0115 21.5232 46.0255 21.5887 45.9811C21.9397 45.7471 21.8765 45.2486 21.474 44.9632C21.3757 44.893 21.1885 44.9257 21.1839 44.783C21.1792 44.6402 21.3594 44.6707 21.4389 44.5911C21.7197 44.315 21.5817 43.7932 21.1628 43.5826C21.1051 43.565 21.0488 43.5431 20.9943 43.517C20.9452 43.4843 20.8984 43.4492 20.9943 43.3837C21.4132 43.0865 21.4062 42.6817 20.9943 42.3681L20.8703 42.2768C20.7176 42.1856 20.5395 42.1461 20.3625 42.1645L15.8323 42.1481C15.7593 42.1386 15.6851 42.144 15.6143 42.1641C15.5435 42.1843 15.4775 42.2186 15.4204 42.2651Z" fill="#EBEBEB"/>
<path fill-rule="evenodd" clip-rule="evenodd" d="M11.1196 44.2612C11.1196 44.9842 11.1196 45.7096 11.1196 46.435C11.1196 46.5824 11.1313 46.655 11.3138 46.6526C12.1952 46.6526 13.0782 46.6526 13.9627 46.6526C14.1359 46.6526 14.164 46.5965 14.1616 46.442C14.1616 44.985 14.1671 43.5272 14.178 42.0686C14.178 41.8837 14.1289 41.8346 13.944 41.8346C13.0876 41.8346 12.2288 41.8346 11.37 41.8229C11.1571 41.8229 11.136 41.8931 11.136 42.0803C11.1313 42.8221 11.122 43.5358 11.1196 44.2612Z" fill="#EBEBEB"/>
<path fill-rule="evenodd" clip-rule="evenodd" d="M93.3427 8.24379C92.9145 8.51055 92.5377 8.90133 91.9644 8.84517C91.7421 8.82177 91.7913 9.00429 91.7889 9.12363C91.7796 11.2889 91.771 13.4511 91.7632 15.6101C91.7632 15.7669 91.7632 15.8956 91.9434 15.9845C93.6001 16.8222 94.3021 18.4626 95.3083 19.8666C95.8256 20.5641 96.1969 21.3588 96.4 22.2031C96.603 23.0475 96.6336 23.9241 96.49 24.7806C96.4198 25.2673 96.6444 25.4826 97.0843 25.5879C97.6108 25.7096 98.1373 25.5645 98.3199 25.2041C98.7963 24.3215 99.1184 23.3639 99.2722 22.3727C99.3682 21.5537 99.078 20.7558 98.9774 19.9438C98.9049 19.3494 98.7691 18.7738 98.6568 18.1607C98.8019 18.0554 98.9704 18.1116 99.1248 18.1092L104.603 18.1256C105.373 18.1256 105.749 17.908 105.859 17.3979C105.92 17.082 105.875 16.755 105.732 16.4671C105.589 16.1791 105.355 15.9463 105.066 15.8043C104.93 15.7365 104.682 15.8043 104.668 15.5844C104.654 15.3644 104.902 15.3878 105.031 15.3012C105.696 14.8496 105.576 13.9136 104.811 13.3707C104.629 13.242 104.27 13.3005 104.263 13.0291C104.263 12.8138 104.593 12.8185 104.746 12.6664C105.281 12.1422 105.019 11.1548 104.224 10.7546C104.114 10.7214 104.007 10.6799 103.903 10.6306C103.812 10.5698 103.723 10.5019 103.903 10.3779C104.696 9.81393 104.682 9.02769 103.889 8.45205L103.655 8.27889C103.366 8.10468 103.029 8.02988 102.693 8.06595C99.8323 8.05191 96.9689 8.04177 94.1032 8.03553C93.9689 8.01819 93.8326 8.02766 93.7021 8.06341C93.5715 8.09916 93.4494 8.16047 93.3427 8.24379Z" fill="#EBEBEB"/>
<path fill-rule="evenodd" clip-rule="evenodd" d="M85.1877 12.0276C85.1877 13.4012 85.1877 14.7771 85.1689 16.1484C85.1689 16.4292 85.1947 16.5649 85.5363 16.5625C87.2118 16.5485 88.8872 16.554 90.5626 16.5789C90.8902 16.5789 90.9417 16.4689 90.9417 16.1788C90.9417 13.4129 90.9511 10.6486 90.9698 7.88583C90.9698 7.53483 90.8785 7.43421 90.5252 7.43889C88.8989 7.45059 87.2749 7.45059 85.651 7.42017C85.2462 7.42017 85.183 7.55355 85.183 7.90689C85.2087 9.28047 85.1923 10.654 85.1877 12.0276Z" fill="#EBEBEB"/>
<path d="M104.937 59.0312C104.089 60.711 102.888 62.1877 101.416 63.3602C99.6374 62.7556 98.0095 61.7765 96.642 60.489C94.8426 58.8112 94.3816 55.7692 96.3589 54.749C97.819 53.9932 99.0803 55.203 99.7589 56.0898L99.5694 58.5796L100.4 58.4345L100.29 60.248L100.861 60.1497L100.838 61.9305L101.322 59.5554L100.737 59.6583L101.14 57.7138L100.423 57.8401L100.861 55.0696C101.299 54.1921 102.031 53.3661 103.243 53.5369C105.452 53.8481 106.058 56.841 104.937 59.0312Z" fill="#EBEBEB"/>
<path d="M26.938 81.5607C26.0957 84.2032 24.6943 86.6334 22.8289 88.686C20.0946 88.2306 17.4899 87.1932 15.1912 85.644C12.1772 83.6246 10.792 79.3049 13.4315 77.3557C15.376 75.9119 17.4984 77.3768 18.6941 78.5093L19.003 82.1784L20.173 81.7713L20.4398 84.4389L21.2494 84.1581L21.6332 86.7578L21.8017 83.1846L20.9733 83.4725L21.102 80.5475L20.0888 80.8985L20.0794 76.752C20.51 75.3737 21.3968 73.9978 23.1893 73.965C26.47 73.8972 28.0541 78.1115 26.938 81.5607Z" fill="#EBEBEB"/>
<path d="M58.9471 8.33276V36.2139H55.0323V42.9788L48.2697 36.2139H11.1526V8.33276H58.9471Z" fill="white"/>
<path d="M58.947 8.33275C58.9189 8.49655 59.1061 36.2115 59.0874 36.3542H58.9447L55.0322 36.3683L55.1843 36.2138L55.2053 42.9788V43.3977L54.9058 43.1005L48.1198 36.3566C48.878 36.5344 10.977 36.38 11.1478 36.4432H10.9138V36.2092L10.9442 8.32807V8.12683H11.1431C23.0608 8.16895 47.027 8.25085 58.9376 8.32573L58.947 8.33275ZM58.947 8.33275C47.0364 8.40997 23.0584 8.49187 11.1525 8.53165L11.3537 8.33275L11.3818 36.2138L11.1478 35.9798L48.3538 36.0103L48.4123 36.0688L55.1585 42.8548L54.8614 42.9788L54.8824 36.2138V36.0618H55.0345L58.947 36.0758L58.8089 36.2138L58.9493 8.33275H58.947Z" fill="#263238"/>
<path d="M26.0139 22.2745C26.0139 22.7226 25.881 23.1606 25.632 23.5332C25.383 23.9057 25.0291 24.1961 24.615 24.3674C24.201 24.5388 23.7455 24.5835 23.306 24.4959C22.8665 24.4084 22.4629 24.1924 22.1463 23.8754C21.8296 23.5584 21.614 23.1545 21.5269 22.715C21.4397 22.2754 21.4849 21.8199 21.6567 21.4061C21.8285 20.9922 22.1192 20.6386 22.492 20.39C22.8648 20.1414 23.303 20.0089 23.7511 20.0094C24.0485 20.0094 24.3429 20.068 24.6176 20.1819C24.8923 20.2957 25.1418 20.4626 25.352 20.673C25.5621 20.8833 25.7287 21.1331 25.8423 21.4079C25.9559 21.6827 26.0142 21.9772 26.0139 22.2745Z" fill="#263238"/>
<path d="M37.3161 22.2745C37.3161 22.7225 37.1833 23.1605 36.9344 23.533C36.6855 23.9054 36.3317 24.1958 35.9178 24.3672C35.5039 24.5387 35.0485 24.5835 34.6091 24.4961C34.1697 24.4087 33.7661 24.193 33.4493 23.8762C33.1325 23.5594 32.9168 23.1558 32.8294 22.7164C32.742 22.277 32.7869 21.8216 32.9583 21.4077C33.1298 20.9938 33.4201 20.64 33.7926 20.3911C34.1651 20.1422 34.603 20.0094 35.051 20.0094C35.3485 20.0094 35.643 20.068 35.9178 20.1818C36.1926 20.2957 36.4424 20.4625 36.6527 20.6728C36.863 20.8832 37.0299 21.1329 37.1437 21.4077C37.2575 21.6825 37.3161 21.9771 37.3161 22.2745Z" fill="#263238"/>
<path d="M48.6159 22.2745C48.6159 22.7225 48.4831 23.1605 48.2342 23.533C47.9853 23.9054 47.6315 24.1958 47.2176 24.3672C46.8037 24.5387 46.3483 24.5835 45.9089 24.4961C45.4695 24.4087 45.0659 24.193 44.7491 23.8762C44.4323 23.5594 44.2166 23.1558 44.1292 22.7164C44.0418 22.277 44.0867 21.8216 44.2581 21.4077C44.4296 20.9938 44.7199 20.64 45.0924 20.3911C45.4649 20.1422 45.9028 20.0094 46.3508 20.0094C46.9516 20.0094 47.5277 20.248 47.9525 20.6728C48.3773 21.0976 48.6159 21.6738 48.6159 22.2745Z" fill="#263238"/>
<path d="M64.6682 28.2345V52.2569H68.0402V58.0835L73.8691 52.2569H105.848V28.2345H64.6682Z" fill="white"/>
<path d="M64.6684 28.2344C64.7269 35.0509 64.7714 45.5224 64.8088 52.2569L64.6684 52.1165L68.0404 52.1048H68.1925V52.2569L68.2135 58.0835L67.9187 57.9618L73.7266 52.1118L73.7851 52.0533C73.8506 52.0837 105.771 51.9995 105.843 52.0229L105.609 52.2569L105.637 28.2344L105.838 28.4333C95.5728 28.4076 74.9223 28.2953 64.6544 28.2344H64.6684ZM64.6684 28.2344C74.9293 28.1736 95.5868 28.0613 105.852 28.0332H106.051V28.2344L106.082 52.2569V52.4909H105.848C105.848 52.3996 73.3802 52.5938 74.0097 52.402L68.1597 58.2122L67.8602 58.5V58.0811L67.8812 52.2545L68.0333 52.4066L64.6614 52.3949H64.521V52.2569C64.521 45.5364 64.638 35.0275 64.6614 28.2344H64.6684Z" fill="#263238"/>
<path d="M75.2732 41.776H74.9012C74.8458 41.7763 74.7909 41.7656 74.7396 41.7446C74.6884 41.7235 74.6418 41.6925 74.6027 41.6533C74.5635 41.6142 74.5325 41.5676 74.5114 41.5164C74.4904 41.4651 74.4797 41.4102 74.48 41.3548C74.4806 41.2433 74.5252 41.1365 74.604 41.0577C74.6829 40.9788 74.7897 40.9342 74.9012 40.9336H75.4183L75.6523 39.5296H75.1843C75.0726 39.5296 74.9655 39.4852 74.8865 39.4062C74.8075 39.3272 74.7631 39.2201 74.7631 39.1084C74.7631 38.9967 74.8075 38.8896 74.8865 38.8106C74.9655 38.7316 75.0726 38.6872 75.1843 38.6872H75.8161L75.9799 37.7231C75.9953 37.6235 76.0467 37.5331 76.1243 37.4688C76.2019 37.4046 76.3004 37.371 76.4011 37.3745C76.4624 37.3755 76.5228 37.3895 76.5782 37.4158C76.6336 37.442 76.6828 37.4797 76.7224 37.5264C76.7621 37.5732 76.7913 37.6278 76.8081 37.6868C76.8249 37.7457 76.829 37.8076 76.82 37.8682L76.6749 38.6872H77.9479L78.1093 37.7231C78.1253 37.6225 78.1779 37.5313 78.2569 37.467C78.3358 37.4027 78.4358 37.3697 78.5375 37.3745C78.5986 37.3757 78.6586 37.3901 78.7136 37.4164C78.7687 37.4428 78.8174 37.4806 78.8566 37.5274C78.8959 37.5741 78.9246 37.6287 78.941 37.6875C78.9574 37.7463 78.9611 37.8079 78.9517 37.8682L78.8137 38.6872H79.1857C79.2972 38.6878 79.404 38.7324 79.4829 38.8113C79.5617 38.8901 79.6063 38.9969 79.6069 39.1084C79.6051 39.2196 79.5602 39.3256 79.4816 39.4042C79.403 39.4828 79.2969 39.5278 79.1857 39.5296H78.6662L78.4322 40.9336H78.9002C78.9556 40.9333 79.0106 40.944 79.0618 40.965C79.113 40.9861 79.1596 41.0171 79.1988 41.0563C79.2379 41.0955 79.269 41.142 79.29 41.1933C79.3111 41.2445 79.3218 41.2994 79.3214 41.3548C79.3208 41.4663 79.2763 41.5731 79.1974 41.652C79.1185 41.7308 79.0118 41.7754 78.9002 41.776H78.2918L78.1234 42.7705C78.1066 42.8694 78.0548 42.9591 77.9775 43.023C77.9002 43.087 77.8025 43.1211 77.7022 43.1192C77.6406 43.1189 77.5797 43.1053 77.5239 43.0794C77.468 43.0534 77.4183 43.0157 77.3784 42.9689C77.3384 42.922 77.309 42.8671 77.2922 42.8078C77.2754 42.7485 77.2715 42.6863 77.281 42.6254L77.4354 41.776H76.1624L75.994 42.7705C75.9751 42.8702 75.9215 42.96 75.8427 43.0238C75.7638 43.0877 75.6648 43.1215 75.5634 43.1192C75.502 43.1195 75.4412 43.1063 75.3854 43.0804C75.3297 43.0545 75.2804 43.0166 75.241 42.9695C75.2016 42.9223 75.1732 42.8669 75.1577 42.8075C75.1423 42.748 75.1402 42.6858 75.1516 42.6254L75.2732 41.776ZM77.5477 40.9336L77.7817 39.5296H76.5181L76.2841 40.9336H77.5477Z" fill="#263238"/>
<path d="M81.6848 41.1278V37.8518C81.686 37.7339 81.7336 37.6212 81.8172 37.538C81.9008 37.4548 82.0138 37.4078 82.1318 37.4072C82.2486 37.4085 82.3603 37.4559 82.4423 37.5392C82.5243 37.6225 82.57 37.7349 82.5693 37.8518V41.1278C82.5703 41.1859 82.5596 41.2435 82.5381 41.2974C82.5165 41.3513 82.4844 41.4004 82.4437 41.4418C82.403 41.4832 82.3544 41.516 82.3008 41.5385C82.2473 41.5609 82.1898 41.5724 82.1318 41.5724C82.0732 41.5727 82.0151 41.5615 81.9609 41.5393C81.9067 41.5171 81.8574 41.4844 81.8159 41.443C81.7743 41.4017 81.7414 41.3526 81.7189 41.2985C81.6964 41.2444 81.6848 41.1864 81.6848 41.1278ZM82.1341 43.0794C82.0753 43.0797 82.0171 43.0683 81.9627 43.046C81.9083 43.0236 81.8589 42.9907 81.8174 42.9492C81.7758 42.9076 81.7429 42.8582 81.7205 42.8038C81.6982 42.7495 81.6868 42.6912 81.6872 42.6324V42.471C81.689 42.3532 81.7367 42.2409 81.8202 42.1578C81.9037 42.0747 82.0163 42.0276 82.1341 42.0264C82.251 42.0276 82.3626 42.0751 82.4446 42.1584C82.5266 42.2417 82.5723 42.3541 82.5717 42.471V42.6324C82.5729 42.6907 82.5625 42.7486 82.5411 42.8028C82.5197 42.857 82.4876 42.9063 82.4469 42.9479C82.4061 42.9896 82.3575 43.0226 82.3037 43.0452C82.25 43.0678 82.1924 43.0794 82.1341 43.0794Z" fill="#263238"/>
<path d="M90.207 40.248C90.2122 40.702 90.1036 41.1501 89.8911 41.5514C89.8303 41.6501 89.7631 41.7447 89.6899 41.8345C89.5207 42.0218 89.3015 42.1566 89.0581 42.223C88.989 42.2387 88.9183 42.2466 88.8475 42.2464C88.6822 42.2452 88.5215 42.1925 88.3877 42.0956C88.2539 41.9987 88.1536 41.8625 88.101 41.7058C87.8763 41.823 87.6266 41.884 87.3733 41.8837C87.1634 41.8839 86.9557 41.8407 86.7632 41.757C86.5708 41.6732 86.3977 41.5507 86.2547 41.397C85.9639 41.0773 85.805 40.6592 85.8101 40.227C85.8095 39.804 85.9683 39.3963 86.2547 39.085C86.3973 38.9304 86.5702 38.8068 86.7626 38.7218C86.9551 38.6369 87.1629 38.5925 87.3733 38.5913C87.5846 38.5925 87.7935 38.6369 87.9871 38.7218C88.1807 38.8067 88.3548 38.9303 88.4988 39.085C88.7853 39.3963 88.944 39.804 88.9434 40.227V41.2893C88.9598 41.2729 88.9762 41.2636 88.9996 41.2402C89.0396 41.2007 89.0749 41.1567 89.1049 41.1091C89.2976 40.7336 89.3623 40.3054 89.2894 39.8897C89.2164 39.474 89.0097 39.0935 88.7007 38.806C88.3916 38.5185 87.9971 38.3398 87.5772 38.2971C87.1573 38.2543 86.735 38.3499 86.3743 38.5692C86.0137 38.7885 85.7345 39.1196 85.5793 39.512C85.4241 39.9045 85.4012 40.337 85.5143 40.7436C85.6274 41.1503 85.8701 41.5089 86.2057 41.7649C86.5412 42.021 86.9512 42.1605 87.3733 42.1621C87.5366 42.1624 87.6997 42.1468 87.86 42.1153C87.9162 42.0999 87.975 42.0958 88.0328 42.1034C88.0907 42.111 88.1464 42.13 88.1968 42.1595C88.2471 42.1889 88.2911 42.2281 88.3261 42.2748C88.3611 42.3215 88.3864 42.3747 88.4005 42.4312C88.4298 42.547 88.4123 42.6695 88.3519 42.7724C88.2914 42.8754 88.1929 42.9503 88.0776 42.9811C87.8481 43.0392 87.6123 43.069 87.3756 43.0701C86.8145 43.0705 86.266 42.9044 85.7994 42.5928C85.3329 42.2812 84.9693 41.8381 84.7548 41.3197C84.5403 40.8012 84.4845 40.2308 84.5946 39.6806C84.7046 39.1304 84.9755 38.6253 85.3729 38.2293C85.7702 37.8332 86.2763 37.564 86.8268 37.4558C87.3773 37.3476 87.9476 37.4052 88.4653 37.6214C88.983 37.8376 89.4249 38.2027 89.735 38.6703C90.045 39.1379 90.2093 39.687 90.207 40.248ZM88.0448 40.248C88.0443 40.0517 87.9728 39.8623 87.8436 39.7145C87.7198 39.5887 87.552 39.5158 87.3756 39.5109C87.2879 39.5117 87.2013 39.5301 87.1209 39.5651C87.0405 39.6001 86.9679 39.6509 86.9076 39.7145C86.7766 39.8632 86.7044 40.0546 86.7044 40.2527C86.7044 40.4509 86.7766 40.6422 86.9076 40.7909C86.9669 40.8559 87.0392 40.9076 87.1199 40.9427C87.2005 40.9777 87.2877 40.9954 87.3756 40.9945C87.4633 40.9937 87.5499 40.9753 87.6303 40.9403C87.7107 40.9053 87.7833 40.8545 87.8436 40.7909C87.9744 40.6404 88.0459 40.4474 88.0448 40.248Z" fill="#263238"/>
<path d="M96.249 40.1146C96.2532 40.2623 96.224 40.4091 96.1637 40.544C96.1033 40.6789 96.0133 40.7985 95.9003 40.8938C95.8688 40.9055 95.8389 40.9212 95.8114 40.9406C95.816 41.0053 95.816 41.0702 95.8114 41.1348C95.7939 41.6398 95.581 42.1182 95.2176 42.4693C94.8541 42.8203 94.3686 43.0165 93.8633 43.0165C93.3581 43.0165 92.8725 42.8203 92.5091 42.4693C92.1457 42.1182 91.9328 41.6398 91.9153 41.1348C91.9144 40.8662 91.9703 40.6004 92.0792 40.3549C92.188 40.1093 92.3475 39.8895 92.5471 39.7098C92.3957 39.4728 92.3146 39.1977 92.3131 38.9165C92.3131 38.5168 92.4719 38.1335 92.7545 37.8509C93.0371 37.5683 93.4204 37.4095 93.8201 37.4095C94.2197 37.4095 94.603 37.5683 94.8856 37.8509C95.1682 38.1335 95.327 38.5168 95.327 38.9165C95.3276 38.9754 95.3165 39.0338 95.2943 39.0883C95.272 39.1428 95.2391 39.1923 95.1975 39.2339C95.1559 39.2756 95.1064 39.3085 95.0518 39.3307C94.9973 39.3529 94.9389 39.3641 94.8801 39.3634C94.7611 39.3635 94.6469 39.3165 94.5624 39.2328C94.4778 39.1491 94.4297 39.0355 94.4285 38.9165C94.4285 38.7551 94.3644 38.6004 94.2503 38.4863C94.1362 38.3722 93.9814 38.3081 93.8201 38.3081C93.6587 38.3081 93.504 38.3722 93.3899 38.4863C93.2758 38.6004 93.2117 38.7551 93.2117 38.9165C93.211 39.0138 93.2344 39.1098 93.2797 39.1959C93.325 39.282 93.3909 39.3556 93.4714 39.4102C93.5625 39.4781 93.6257 39.5768 93.6494 39.6879C93.6731 39.799 93.6555 39.9149 93.6001 40.014C93.6001 40.014 93.6001 40.0303 93.6001 40.0467C93.5728 40.0787 93.5431 40.1084 93.5112 40.1356C93.5086 40.1399 93.5053 40.1435 93.5012 40.1463C93.4972 40.1491 93.4926 40.1511 93.4878 40.152C93.481 40.1599 93.472 40.1655 93.462 40.1684C93.4493 40.1771 93.436 40.1849 93.4223 40.1918C93.247 40.2783 93.0991 40.4114 92.9946 40.5766C92.8902 40.7417 92.8333 40.9324 92.8302 41.1278C92.8302 41.4071 92.9412 41.6749 93.1387 41.8724C93.3361 42.0699 93.604 42.1808 93.8832 42.1808C94.1625 42.1808 94.4303 42.0699 94.6278 41.8724C94.8253 41.6749 94.9362 41.4071 94.9362 41.1278V41.081C94.515 41.081 94.3606 41.1863 94.3208 41.2331C94.2966 41.2559 94.278 41.2841 94.2666 41.3154C94.2553 41.3467 94.2514 41.3802 94.2553 41.4133C94.2537 41.4429 94.2537 41.4726 94.2553 41.5022C94.2879 41.6167 94.274 41.7394 94.2166 41.8437C94.1592 41.948 94.0629 42.0254 93.9488 42.0591C93.909 42.0696 93.8682 42.0751 93.8271 42.0755C93.7298 42.0776 93.6346 42.0469 93.5569 41.9883C93.4792 41.9298 93.4236 41.8467 93.3989 41.7526C93.3609 41.6437 93.3442 41.5285 93.3497 41.4133C93.3446 41.2611 93.3715 41.1095 93.4288 40.9684C93.486 40.8274 93.5723 40.6999 93.682 40.5943C94.0324 40.2956 94.4863 40.1468 94.9456 40.1801C95.0345 40.1754 95.1235 40.1754 95.2124 40.1801H95.2381C95.2676 40.1846 95.2975 40.1846 95.327 40.1801C95.3434 40.1801 95.3434 40.1801 95.3504 40.1661V40.1076C95.3531 40.0678 95.3531 40.028 95.3504 39.9882C95.3355 39.9313 95.3323 39.872 95.341 39.8138C95.3496 39.7557 95.37 39.6998 95.4008 39.6498C95.4317 39.5997 95.4723 39.5564 95.5204 39.5224C95.5684 39.4885 95.6228 39.4647 95.6804 39.4524C95.7378 39.4389 95.7974 39.4371 95.8557 39.4469C95.9139 39.4567 95.9696 39.4781 96.0194 39.5097C96.0693 39.5412 96.1124 39.5824 96.1462 39.6309C96.18 39.6793 96.2038 39.7339 96.2162 39.7917C96.2439 39.8969 96.2549 40.0059 96.249 40.1146Z" fill="#263238"/>
<path d="M56.0242 74.1991C56.0249 74.2862 55.9936 74.3705 55.9362 74.4361C55.8788 74.5016 55.7994 74.5439 55.713 74.5548C55.3128 74.5431 54.8355 74.5197 54.2973 74.4963C53.3613 70.8412 52.2755 67.8975 52.5306 69.0277C52.9076 70.8023 53.0351 72.6209 52.9097 74.4307C52.2872 74.398 50.8434 74.3114 50.1227 74.2669C49.6126 67.9489 48.6438 63.2151 48.597 64.6402C48.4122 70.3872 47.9255 72.1867 47.3709 74.1055C40.6457 73.689 31.8356 73.0384 25.4755 72.4207C25.0637 68.9107 24.7735 65.1456 24.6354 65.4007C23.5871 67.2352 23.0887 70.0105 22.8664 72.168C20.8423 71.955 19.23 71.7468 18.2519 71.5666C18.2519 71.5666 18.0483 68.6392 18.0694 67.6845C18.1163 65.2478 18.5858 62.8377 19.457 60.5616C20.3532 58.2403 21.7151 56.2536 23.0208 54.2085C23.0294 54.1921 23.0405 54.1771 23.0536 54.164C23.0536 54.164 23.0536 54.164 23.0536 54.1453C23.9163 52.8068 24.6229 51.374 25.1596 49.8748C25.1656 49.8645 25.1703 49.8535 25.1736 49.842C25.5484 48.7451 25.831 47.6187 26.0184 46.4748C26.7204 42.2838 29.2733 38.8815 33.0782 38.1795C38.0717 33.4129 47.7757 35.6803 49.3809 41.3314C49.5354 41.8813 49.6758 42.5014 49.8068 43.1894V43.2105C50.3099 45.7236 50.6539 48.9622 51.0119 51.48C51.0104 51.482 51.0096 51.4845 51.0096 51.487C51.0096 51.4896 51.0104 51.492 51.0119 51.4941C51.0119 51.4941 51.0119 51.5104 51.0119 51.5221C51.1944 52.7202 51.054 53.7194 51.2459 54.4191C52.6218 59.0265 56.422 61.9819 56.0242 74.1991Z" fill="#263238"/>
<path d="M31.37 39.1552C28.8124 40.2433 27.1369 42.0591 26.47 45.0988C26.0816 46.8725 25.8055 48.6088 25.0029 50.2468C24.1745 51.9246 22.9881 53.242 21.7737 54.5547C19.8408 56.642 18.4298 58.7667 17.8799 61.7713C17.3206 64.8133 17.1171 68.452 17.8144 71.4261C17.8144 71.4449 17.8401 71.4402 17.8378 71.4261C17.3277 68.4333 17.6857 64.4061 18.4555 61.4156C19.3003 58.1396 21.2635 56.2255 23.3087 53.8855C24.9555 52.0322 26.0918 49.7823 26.6058 47.3569C26.931 45.8523 27.0574 44.2658 27.7758 42.8945C28.6205 41.2565 30.083 40.3205 31.5198 39.5039C31.7093 39.3752 31.5642 39.078 31.37 39.1552Z" fill="#263238"/>
<path d="M54.8963 59.6021C53.408 57.0164 52.1327 54.8005 51.4097 51.7163C50.7498 48.9083 50.4947 45.9904 49.8185 43.1824C49.8175 43.1781 49.8158 43.174 49.8133 43.1704C49.8108 43.1667 49.8076 43.1637 49.8039 43.1613C49.8002 43.1589 49.7961 43.1572 49.7918 43.1564C49.7874 43.1556 49.783 43.1557 49.7787 43.1566C49.7744 43.1575 49.7703 43.1593 49.7667 43.1618C49.7631 43.1643 49.76 43.1675 49.7576 43.1712C49.7552 43.1749 49.7535 43.179 49.7527 43.1833C49.752 43.1877 49.752 43.1921 49.7529 43.1964C50.7381 48.1572 50.242 53.008 52.7528 57.3698C54.1194 59.7379 55.4976 61.9468 56.2862 64.6916C57.1146 67.5792 57.3135 70.5089 57.0982 73.5556C57.0982 73.6632 57.2175 73.6702 57.2363 73.5696C58.1185 68.7834 57.2902 63.8394 54.8963 59.6021Z" fill="#263238"/>
<path d="M40.1895 67.0715C50.3638 75.2615 60.6715 84.7174 60.5007 88.3023C60.0959 96.8199 53.9978 97.2598 53.0525 97.2177C46.5941 96.9322 36.6467 80.5733 33.5509 71.7492C30.7874 63.8821 34.5033 62.4945 40.1895 67.0715Z" fill="#EB9481"/>
<path d="M47.6797 108.7L45.3702 95.706C45.3702 95.706 48.363 90.5744 47.5417 87.048C46.8397 84.006 39.1996 68.328 34.3183 64.8578C30.3123 62.0171 26.2617 63.9218 23.7298 67.4693C19.5951 73.2561 15.1654 87.8741 10.7241 108.707L47.6797 108.7Z" fill="#3C0A6D"/>
<path d="M38.6427 92.4301C36.566 92.6563 34.509 93.0364 32.4885 93.5673C31.487 93.8458 30.5066 94.1687 29.5284 94.5033C29.0394 94.6741 28.548 94.8286 28.0542 94.9713C27.5416 95.1459 27.0096 95.2575 26.4701 95.3036C26.4601 95.3036 26.4506 95.3075 26.4436 95.3145C26.4366 95.3216 26.4326 95.3311 26.4326 95.341C26.4326 95.3509 26.4366 95.3605 26.4436 95.3675C26.4506 95.3745 26.4601 95.3785 26.4701 95.3785C26.9809 95.3941 27.4922 95.3746 28.0004 95.32C28.4917 95.2503 28.9779 95.1487 29.4559 95.0158C30.4738 94.742 31.4777 94.4237 32.4979 94.1406C34.5454 93.572 36.5906 93.0034 38.6755 92.5822C38.7691 92.5822 38.741 92.4301 38.6427 92.4301Z" fill="#263238"/>
<path d="M43.8188 94.171C42.1021 94.0267 40.3788 93.9783 38.6567 94.0259C37.7933 94.054 36.9415 94.1312 36.0827 94.2318C35.6756 94.2786 35.2661 94.3348 34.8589 94.3933C34.412 94.4611 33.972 94.5875 33.5228 94.646C33.476 94.646 33.4783 94.7255 33.5228 94.7209C33.9486 94.6764 34.3815 94.7045 34.8098 94.6858L36.0968 94.6249C36.9532 94.5875 37.812 94.5594 38.6708 94.5126C40.3907 94.4213 42.1012 94.3465 43.8188 94.3137C43.917 94.302 43.9077 94.178 43.8188 94.171Z" fill="#263238"/>
<path d="M28.7047 64.1324C28.686 64.9093 31.7888 69.8186 35.1748 70.53C36.2793 70.764 36.9579 65.5387 36.9579 65.5387L37.1708 65.1246L40.1496 59.3214L34.1124 52.8021L33.2279 51.9176C33.2279 51.9176 32.5259 53.5556 31.6554 55.6101L31.5314 55.9026C31.4799 56.0173 31.4308 56.1366 31.3863 56.2349C31.2529 56.5414 31.1196 56.8527 30.9932 57.1709C30.8949 57.4049 30.7966 57.6389 30.703 57.894C30.6094 58.149 30.5112 58.3924 30.4105 58.6451C29.4699 61.1489 28.7187 63.8048 28.7047 64.1324Z" fill="#EB9481"/>
<path d="M31.6531 55.6101C31.827 57.5015 32.4107 59.3323 33.3635 60.9753C34.3164 62.6184 35.6156 64.0342 37.1708 65.1246L40.1496 59.3214L34.1124 52.8021L33.2279 51.9176C33.2279 51.9176 32.5259 53.5579 31.6531 55.6101Z" fill="#263238"/>
<path d="M51.4097 52.2429C50.1672 63.62 43.2197 64.1629 40.7534 63.8938C38.5233 63.6481 30.9675 62.5319 31.026 51.087C31.0845 39.642 36.7707 36.6211 41.8976 36.9112C47.0246 37.2014 52.6499 40.8635 51.4097 52.2429Z" fill="#EB9481"/>
<path d="M31.412 52.5799C34.0726 51.824 34.6061 49.2594 34.6061 49.2594C36.6999 48.7266 38.614 47.646 40.1519 46.1285C40.0373 46.3461 39.2159 47.9186 38.783 48.7025C46.0838 48.5504 49.1703 43.4936 49.1703 43.4936C51.0867 46.1659 51.3044 47.7056 51.5103 48.4942C51.5103 48.4942 52.2801 44.1582 50.5275 40.8799C48.384 36.8644 44.5418 36.9253 44.5418 36.9253C44.5418 36.9253 39.3119 34.377 34.2692 38.3152C28.8474 42.5717 31.412 52.5799 31.412 52.5799Z" fill="#263238"/>
<path d="M44.3594 48.424C43.1182 48.8585 41.8193 49.1061 40.5054 49.1587C40.5054 49.1587 40.5054 49.1423 40.5054 49.14C42.587 48.9271 44.5677 48.1369 46.2243 46.8585C46.9241 46.3108 47.553 45.678 48.0963 44.9748C48.6673 44.2377 49.2523 43.3368 49.484 42.4312C49.4892 42.4187 49.4987 42.4085 49.5108 42.4025C49.523 42.3964 49.5369 42.395 49.55 42.3984C49.5631 42.4018 49.5745 42.4099 49.5822 42.4211C49.5898 42.4323 49.5932 42.4458 49.5916 42.4593C49.3576 43.4234 49.1119 44.3102 48.5667 45.155C48.0464 45.9643 47.3817 46.671 46.6057 47.2399C45.9133 47.7388 45.1539 48.1374 44.35 48.424" fill="#263238"/>
<path d="M44.5464 36.9299C41.0785 35.1772 36.5904 35.8418 33.8245 38.5679C32.4556 39.9228 31.6787 41.762 31.2505 43.627C30.8477 45.5365 30.7216 47.4941 30.8761 49.4395C30.5407 47.4916 30.547 45.5002 30.8948 43.5544C31.2505 41.5982 32.0648 39.663 33.4828 38.2356C36.3517 35.4159 41.1206 34.7841 44.5347 36.9369L44.5464 36.9299Z" fill="#263238"/>
<path d="M45.0801 36.972C48.6626 36.8527 51.3326 39.6958 51.9035 43.0864C52.1077 44.1659 52.1597 45.2686 52.058 46.3624C51.9753 45.2848 51.8047 44.2158 51.5478 43.166C50.7756 39.9134 48.4824 37.4166 45.0801 36.972Z" fill="#263238"/>
<path d="M32.7413 52.1587C32.7413 52.1587 30.9816 48.169 29.2172 48.7306C27.4529 49.2922 28.2812 54.735 30.0222 55.7974C30.2349 55.9491 30.4761 56.0562 30.7313 56.1124C30.9864 56.1686 31.2503 56.1727 31.5071 56.1244C31.7639 56.0761 32.0082 55.9765 32.2256 55.8314C32.4429 55.6863 32.6286 55.4989 32.7717 55.2802L32.7413 52.1587Z" fill="#EB9481"/>
<path d="M29.4979 50.2843C29.4674 50.2843 29.4534 50.3171 29.4768 50.3334C30.6819 51.122 31.1312 52.4699 31.3652 53.8247C31.0727 53.2631 30.593 52.8887 29.8535 53.228C29.8138 53.2467 29.8372 53.3052 29.8746 53.3052C30.1193 53.2772 30.3667 53.3258 30.5826 53.4444C30.7985 53.5631 30.9722 53.7458 31.0797 53.9675C31.259 54.3412 31.3963 54.7335 31.4892 55.1375C31.529 55.2662 31.7513 55.2451 31.7349 55.1024C31.7336 55.0915 31.7336 55.0805 31.7349 55.0696C32.0929 53.3988 31.2575 50.8061 29.4979 50.2843Z" fill="#263238"/>
<path d="M49.9191 49.4676C49.7032 49.3134 49.479 49.1713 49.2475 49.0418C48.9877 48.8803 48.7982 48.7259 48.48 48.7376C48.3903 48.75 48.3074 48.792 48.2442 48.8568C48.1811 48.9216 48.1414 49.0056 48.1313 49.0956C48.1079 49.4817 48.377 49.7578 48.6812 49.9637C48.9809 50.1822 49.3515 50.2807 49.7202 50.2398C49.8037 50.2263 49.8814 50.1887 49.9439 50.1317C50.0064 50.0747 50.051 50.0007 50.0721 49.9188C50.0932 49.8368 50.0899 49.7505 50.0628 49.6704C50.0356 49.5903 49.9857 49.5198 49.9191 49.4676Z" fill="#263238"/>
<path d="M41.2635 49.8655C41.5081 49.763 41.758 49.674 42.0123 49.5987C42.3024 49.4981 42.5201 49.3881 42.829 49.47C42.9133 49.5024 42.9847 49.5617 43.032 49.6386C43.0794 49.7156 43.1001 49.806 43.091 49.8959C43.0278 50.2796 42.7049 50.4879 42.361 50.6236C42.0203 50.7698 41.6374 50.784 41.2869 50.6634C41.2082 50.6319 41.1404 50.5781 41.0918 50.5086C41.0433 50.439 41.0161 50.3569 41.0136 50.2721C41.0111 50.1874 41.0335 50.1037 41.0778 50.0315C41.1222 49.9592 41.1868 49.9015 41.2635 49.8655Z" fill="#263238"/>
<path d="M40.3509 58.7667C40.4867 59.0007 40.6037 59.2839 40.8728 59.3798C41.1567 59.4476 41.4517 59.4548 41.7386 59.4009C41.7442 59.4004 41.7498 59.4015 41.7548 59.4043C41.7597 59.407 41.7637 59.4112 41.7663 59.4163C41.7688 59.4213 41.7697 59.427 41.769 59.4326C41.7682 59.4382 41.7658 59.4435 41.762 59.4477C41.6145 59.5687 41.437 59.6477 41.2484 59.6761C41.0597 59.7045 40.8668 59.6814 40.6902 59.6091C40.3626 59.4594 40.2714 59.1177 40.269 58.7831C40.269 58.734 40.3322 58.734 40.3509 58.7667Z" fill="#263238"/>
<path d="M42.2556 57.4868C43.6338 57.337 44.4084 57.6225 45.1946 57.8097C45.2859 57.8097 45.4941 57.7652 45.5175 57.681L45.6462 56.043C45.8498 56.174 46.8935 56.7871 46.9098 56.4782C47.0339 53.9042 47.1743 51.0681 46.7577 48.4941C46.7547 48.4774 46.7459 48.4623 46.7328 48.4514C46.7198 48.4405 46.7034 48.4346 46.6864 48.4346C46.6694 48.4346 46.6529 48.4405 46.6399 48.4514C46.6268 48.4623 46.618 48.4774 46.615 48.4941C46.3974 50.9511 46.615 53.4315 46.4348 55.9026C46.0979 55.7318 45.555 55.4346 45.2461 55.3948C45.1595 55.4112 45.1993 57.1381 45.1408 57.3978C44.1895 57.0341 43.1414 57.0126 42.176 57.337C41.7993 57.4517 41.7525 57.5406 42.2556 57.4868Z" fill="#263238"/>
<path d="M43.5238 58.7341C43.9076 58.6919 44.7804 57.4026 44.1954 57.1756C43.6104 56.9486 42.1198 57.0095 41.4178 57.7981C40.7907 58.486 42.6978 58.3058 42.9576 58.5001C43.1705 58.6405 43.2501 58.7575 43.5238 58.7341Z" fill="#263238"/>
<path d="M42.9554 58.5001C43.0045 58.5352 43.0396 58.5656 43.0794 58.589C43.2011 58.1374 42.9858 57.5196 42.1574 57.3043C41.8769 57.4111 41.6241 57.5799 41.418 57.7981C40.7908 58.4813 42.6956 58.3058 42.9554 58.5001Z" fill="#FF9ABB"/>
<path d="M42.8523 52.3739C42.8523 52.3434 42.7891 52.4019 42.7844 52.4347C42.7025 53.2069 42.4802 54.0727 41.7501 54.2365C41.7267 54.2365 41.7244 54.281 41.7501 54.281C42.6159 54.288 42.8991 53.118 42.8523 52.3739Z" fill="#263238"/>
<path d="M41.3735 51.831C41.3407 51.9731 41.3226 52.1182 41.3197 52.2639C41.2585 52.3614 41.1845 52.4504 41.0998 52.5283C41.02 52.6084 40.9193 52.6643 40.8091 52.6896C40.699 52.7148 40.584 52.7084 40.4773 52.6711C40.0397 52.4979 39.9719 51.9691 40.0655 51.5011C40.0655 51.466 40.0959 51.4519 40.1099 51.4777C40.234 51.7678 40.3884 52.0697 40.6622 52.0978C40.8962 52.1259 41.1302 51.9199 41.3525 51.824C41.3525 51.824 41.3525 51.824 41.3665 51.824L41.3735 51.831Z" fill="#263238"/>
<path d="M42.761 53.2116C42.6963 53.4147 42.5793 53.5971 42.4217 53.7405C42.3303 53.8141 42.2248 53.8682 42.1117 53.8996C41.9987 53.931 41.8804 53.939 41.7641 53.923C41.6455 53.9036 41.5331 53.8567 41.436 53.786C41.3389 53.7153 41.2597 53.6227 41.2049 53.5158C41.112 53.3281 41.064 53.1215 41.0645 52.9121C41.0663 52.7875 41.0765 52.6632 41.0949 52.54C41.1303 52.2821 41.2257 52.0361 41.3733 51.8217C41.3339 52.0054 41.3151 52.193 41.3172 52.3809C41.3172 52.5502 41.3305 52.7192 41.357 52.8864C41.4108 53.228 41.5605 53.5299 41.825 53.5509C42.0894 53.572 42.3327 53.4082 42.4919 53.0946C42.6453 52.7686 42.7667 52.4285 42.8546 52.0791C42.9132 52.4587 42.8811 52.8468 42.761 53.2116Z" fill="#263238"/>
<path d="M47.5534 52.9074C47.5651 52.8793 47.6072 52.9542 47.6002 52.987C47.4294 53.7428 47.3662 54.6414 48.0003 55.0275C48.0214 55.0392 48.012 55.0766 47.9863 55.0672C47.1673 54.7864 47.2679 53.5977 47.5534 52.9074Z" fill="#263238"/>
<path d="M49.1399 52.87C49.1248 53.0146 49.095 53.1573 49.051 53.2959C49.076 53.4084 49.1178 53.5165 49.175 53.6165C49.2247 53.718 49.302 53.8034 49.398 53.863C49.4941 53.9226 49.6049 53.9539 49.7179 53.9534C50.1859 53.93 50.4199 53.4597 50.4808 52.9893C50.4808 52.9542 50.4667 52.9332 50.4457 52.9519C50.2351 53.1859 49.9917 53.4199 49.7226 53.3614C49.4886 53.3099 49.3342 53.0408 49.1563 52.8794C49.1563 52.8794 49.1563 52.8794 49.1423 52.8794L49.1399 52.87Z" fill="#263238"/>
<path d="M47.3732 53.7311C47.3675 53.9437 47.4192 54.1539 47.523 54.3395C47.5855 54.4392 47.6678 54.5249 47.7648 54.5913C47.8618 54.6577 47.9715 54.7035 48.0869 54.7256C48.2054 54.7448 48.3266 54.7361 48.4411 54.7004C48.5556 54.6647 48.6603 54.6028 48.7468 54.5197C48.8947 54.3714 49.0067 54.1914 49.0744 53.9932C49.1131 53.8747 49.1428 53.7535 49.1633 53.6305C49.2131 53.375 49.2027 53.1114 49.1329 52.8607C49.1108 53.0475 49.0677 53.2312 49.0042 53.4082C48.9502 53.5688 48.8845 53.7252 48.8077 53.8762C48.6439 54.1828 48.4052 54.4191 48.1501 54.3559C47.8951 54.2927 47.7125 54.0564 47.6657 53.7101C47.6229 53.3521 47.6167 52.9906 47.647 52.6313C47.4698 52.971 47.376 53.348 47.3732 53.7311Z" fill="#263238"/>
<path d="M51.7419 96.174C49.5002 92.217 49.554 86.9614 49.4651 71.6999C49.4511 69.2055 64.5019 66.5519 64.7991 69.1961C65.1712 72.5353 64.5651 81.9046 63.2149 87.874C61.4365 95.7996 53.2302 98.8065 51.7419 96.174Z" fill="#EB9481"/>
<path d="M64.7034 70.7195C64.7034 70.7195 66.9404 64.8999 67.1697 61.4789C67.4763 56.8971 65.8546 52.8209 65.0637 51.1454C63.4257 47.6588 57.0703 40.3627 54.6484 41.8275C52.4558 43.1543 59.3284 50.2843 59.3284 50.2843C59.3284 50.2843 53.5158 41.8603 51.1688 43.9382C48.8218 46.0161 57.2785 53.8458 57.2785 53.8458C57.2785 53.8458 51.1126 45.3212 49.0324 47.8507C47.4622 49.7625 54.7209 57.2786 54.7209 57.2786C54.7209 57.2786 49.374 49.9871 47.6822 51.8849C45.8102 53.9909 52.0697 61.3385 52.0697 61.3385C48.5597 66.8889 49.1564 70.9652 49.9286 73.8153C50.1135 74.5056 64.7034 70.7195 64.7034 70.7195Z" fill="#EB9481"/>
<path d="M61.5419 53.0713C60.896 52.0557 60.2455 51.0238 59.5107 50.0714C58.776 49.119 58.0085 48.1994 57.1871 47.3079C55.1747 45.1457 53.5765 44.1091 53.6771 44.184C55.8463 45.9553 58.5303 49.332 59.2674 50.282C60.0045 51.232 60.7814 52.154 61.5161 53.09C61.5231 53.1181 61.5559 53.0947 61.5419 53.0713Z" fill="#263238"/>
<path d="M58.1443 55.7879C57.2621 54.5267 56.4314 53.2443 55.4931 52.0229C54.5547 50.8014 53.5673 49.7367 52.554 48.5877C52.4745 48.5012 52.4534 48.5714 52.5283 48.6626C53.4971 49.8513 54.2997 51.0237 55.2544 52.2218C56.2091 53.4198 57.2106 54.5828 58.1162 55.8113C58.1303 55.83 58.1583 55.8066 58.1443 55.7879Z" fill="#263238"/>
<path d="M55.6498 58.6428C54.4002 56.6491 52.7833 54.8871 51.157 53.1976C51.0751 53.1133 51.0587 53.1976 51.1359 53.2982C52.6639 55.0813 53.8737 56.4689 55.5819 58.6802C55.6076 58.72 55.6755 58.6849 55.6498 58.6428Z" fill="#263238"/>
<path d="M50.1953 91.7678C49.3529 85.1152 48.8966 78.3924 49.154 71.6859C48.686 69.3459 49.2851 66.0044 50.4293 63.5802C50.8156 62.7356 51.2662 61.9221 51.7772 61.1466L51.7959 61.5561C50.6376 60.0117 44.6846 52.2803 48.1455 51.3045C48.8475 51.1969 49.4465 51.5245 49.9964 51.8708C50.2537 52.0411 50.4984 52.2296 50.7288 52.4348L50.3357 52.7975C49.5518 51.6275 47.977 49.2875 48.7632 47.9022C48.9526 47.6401 49.2184 47.4429 49.5243 47.3378C49.8301 47.2326 50.1609 47.2246 50.4714 47.3148C51.2272 47.5337 51.9202 47.9292 52.4932 48.4685L52.3154 48.6346C51.5923 47.5746 50.8599 46.4209 50.7476 45.1246C50.726 44.9093 50.7541 44.6919 50.8295 44.4891C50.9049 44.2863 51.0258 44.1035 51.1828 43.9546C50.5299 44.6051 50.8646 45.5926 51.1828 46.3391C51.6508 47.4178 52.4394 48.424 53.1788 49.3366C52.3668 48.6978 51.4379 47.8507 50.4083 47.6658C49.0511 47.4482 48.7118 48.4919 49.1353 49.608C49.6969 51.2671 51.1079 52.9098 52.1445 54.3068C51.3209 53.6773 49.959 52.3271 48.9692 52.0065C46.7696 51.335 48.0332 54.3933 48.5363 55.327C49.6713 57.4508 51.0032 59.4635 52.5143 61.3385C51.9676 62.1479 51.4856 62.9992 51.0728 63.8844C50.1236 65.907 49.6437 68.118 49.6688 70.3521C49.6754 70.8034 49.7185 71.2533 49.7975 71.6976C49.7601 72.5424 49.7063 73.3871 49.6922 74.2365C49.5097 80.0865 49.7975 85.9365 50.2117 91.7865L50.1953 91.7678Z" fill="#263238"/>
<path d="M27.0972 65.1878C30.3264 64.8087 34.3207 82.464 24.3828 83.6246C14.4448 84.7853 22.595 65.7143 27.0972 65.1878Z" fill="#EB9481"/>
<path d="M22.1339 69.7016C14.3277 82.5014 9.59383 103.566 13.029 107.432C16.8689 111.737 25.693 96.5368 25.431 95.699C25.2367 95.0649 26.147 81.7105 27.6844 71.1595C29.2218 60.6084 24.0644 66.5356 22.1339 69.7016Z" fill="#EB9481"/>
<path d="M25.3374 96.4899C25.6494 89.278 26.2656 82.088 27.186 74.9198C26.8834 82.1317 26.2672 89.3217 25.3374 96.4899Z" fill="#263238"/>
<path d="M26.9099 79.092C27.0647 78.1523 27.3433 77.2372 27.7383 76.3706C27.6441 77.3235 27.3626 78.2483 26.9099 79.092Z" fill="#263238"/>
<path d="M13.8737 94.6109C10.8153 99.5506 11.2763 108.953 15.266 108.204C23.6291 106.634 37.1426 96.3846 43.5589 89.5799C45.4613 87.5628 32.7411 77.5546 30.3332 79.2839C26.9707 81.6941 18.7058 86.814 13.8737 94.6109Z" fill="#EB9481"/>
<path d="M38.2003 73.3707C37.2901 73.9206 36.9952 73.4479 37.6598 71.6789C38.3243 69.9098 42.4591 63.4701 40.091 62.2182C37.723 60.9663 32.0227 70.1345 31.1405 73.1648C30.2584 76.1951 29.8933 81.4086 29.8933 81.4086C31.3558 79.8478 35.2823 76.3986 38.2003 73.3707Z" fill="#EB9481"/>
<path d="M42.5106 90.8903C47.2467 86.3999 51.7044 80.9149 52.9634 74.2178C53.1215 73.4767 53.0267 72.7039 52.6943 72.0229C53.3097 69.0324 52.0835 67.8413 52.0835 67.8413C51.8051 64.8789 50.3823 63.8352 50.3823 63.8352C50.3823 63.8352 51.068 60.3135 49.0088 59.546C46.7039 58.6779 46.1891 63.7908 44.1884 66.4326C39.602 72.4815 31.3886 79.7964 29.8933 81.4086L42.5106 90.8903Z" fill="#EB9481"/>
<path d="M43.8376 76.1483C45.1503 74.3418 46.4888 72.6009 47.5511 70.6259C48.7211 68.4567 49.477 66.1799 50.3077 63.8727C50.3141 63.8602 50.3247 63.8504 50.3376 63.8448C50.3505 63.8393 50.3649 63.8383 50.3784 63.8422C50.3919 63.846 50.4036 63.8544 50.4116 63.866C50.4196 63.8775 50.4234 63.8914 50.4223 63.9054C49.5776 68.3116 47.02 72.9799 43.9171 76.2091C43.8422 76.284 43.7697 76.2396 43.8376 76.1483Z" fill="#263238"/>
<path d="M47.0853 79.4477C48.267 77.6179 50.3216 74.391 52.0134 67.8226C52.0148 67.8185 52.0175 67.8149 52.0211 67.8124C52.0246 67.8098 52.0289 67.8085 52.0333 67.8085C52.0376 67.8085 52.0419 67.8098 52.0455 67.8124C52.049 67.8149 52.0517 67.8185 52.0532 67.8226C51.522 72.2312 49.8629 76.0126 47.1719 79.4969C47.0877 79.6115 47.0058 79.5601 47.0853 79.4477Z" fill="#263238"/>
<path d="M48.8639 81.198C50.7546 78.0109 51.5432 75.7621 52.6734 72.0439C52.6734 72.0228 52.7179 72.0275 52.7132 72.0439C51.8731 76.4056 51.0752 77.8939 48.9692 81.2705C48.892 81.3852 48.7914 81.3126 48.8639 81.198Z" fill="#263238"/>
<path d="M43.4138 67.4225C44.1864 66.4248 44.8121 65.3216 45.2718 64.1465C45.7211 62.9765 46.1212 61.755 46.7741 60.6224C46.9447 60.3368 47.1473 60.0715 47.3778 59.8315C47.6193 59.5706 47.9302 59.384 48.274 59.2933C48.6229 59.2332 48.9815 59.2672 49.313 59.3916C49.6447 59.5141 49.9279 59.7406 50.1203 60.0374C50.4519 60.6116 50.6142 61.2679 50.5883 61.9305C50.58 62.5701 50.5087 63.2073 50.3753 63.8329C50.4272 63.2031 50.4311 62.5703 50.387 61.9399C50.3379 61.3244 50.2092 60.6879 49.8558 60.2223C49.6854 59.9953 49.4518 59.8235 49.1843 59.7286C48.9171 59.6343 48.6301 59.6109 48.3512 59.6607C47.8224 59.7941 47.4293 60.3229 47.1204 60.8307C46.4722 61.8837 46.0744 63.0958 45.5596 64.2611C45.0431 65.4369 44.3159 66.5084 43.4138 67.4225Z" fill="#263238"/>
<path d="M35.0508 66.0909C35.71 64.9651 36.5132 63.9299 37.4399 63.0115C37.9266 62.5763 38.4555 62.141 39.1458 61.9585C39.5064 61.8634 39.8891 61.9008 40.2245 62.0638C40.3926 62.155 40.5399 62.28 40.6571 62.4311C40.7743 62.5821 40.8589 62.7559 40.9055 62.9413C41.0973 63.6433 40.978 64.3289 40.847 64.9771C40.6965 65.6214 40.4954 66.2528 40.2456 66.8655C39.7238 68.0823 39.1177 69.2195 38.5327 70.3755C38.2324 70.9302 37.9819 71.5105 37.7839 72.1094C37.6962 72.4056 37.6328 72.7085 37.5944 73.015C37.5767 73.1366 37.5822 73.2605 37.6107 73.38C37.6295 73.4128 37.6107 73.38 37.6107 73.3941C37.6462 73.3943 37.6812 73.3871 37.7137 73.373C38.2074 73.1765 38.6333 72.6266 39.0873 72.1866C39.5412 71.7467 39.9718 71.2506 40.4047 70.7686C41.2728 69.8115 42.1106 68.8241 42.9413 67.8343C43.7931 66.8619 44.5501 65.8104 45.2017 64.694C44.6752 65.8827 43.896 66.9404 43.1285 67.984C42.3609 69.0276 41.5302 70.0268 40.6972 71.026C40.2783 71.5244 39.8548 72.0158 39.4196 72.5002C39.2019 72.7342 38.9773 72.9682 38.741 73.2022C38.6194 73.3238 38.4913 73.4386 38.3572 73.5462C38.2108 73.6612 38.0484 73.7542 37.8752 73.8223C37.7576 73.8715 37.6284 73.8853 37.5031 73.8621C37.4257 73.8431 37.3541 73.8057 37.2942 73.7532C37.2343 73.7007 37.188 73.6345 37.1591 73.5602C37.0937 73.3685 37.0737 73.1643 37.1006 72.9635C37.138 72.6274 37.2021 72.2949 37.2925 71.969C37.4901 71.3343 37.7446 70.7187 38.053 70.1298C38.6099 68.9598 39.2721 67.8296 39.7752 66.6666C40.0238 66.0831 40.2249 65.4806 40.3766 64.8648C40.5423 64.2765 40.5774 63.6592 40.4796 63.056C40.4548 62.9244 40.4026 62.7996 40.3264 62.6895C40.2502 62.5795 40.1517 62.4867 40.0373 62.4171C39.7888 62.2862 39.5018 62.248 39.2277 62.3095C38.6474 62.4335 38.1115 62.8173 37.6295 63.2198C36.6634 64.0756 35.7983 65.0389 35.0508 66.0909Z" fill="#263238"/>
<path d="M18.9656 88.2742C22.3399 84.9725 25.9411 81.886 29.8747 79.2676L29.7202 79.5273C29.8421 77.7448 30.1018 75.9743 30.4971 74.2319C30.8434 72.4652 31.749 70.8646 32.6569 69.3179C34.0305 67.0411 37.0865 61.9212 40.0911 62.2183C36.8151 62.1318 33.3402 69.3226 31.9643 71.9504C30.9323 74.3208 30.6609 77.0118 30.3941 79.5741L30.3801 79.7449L30.2397 79.8362C26.2921 82.3681 22.6136 85.3212 18.9656 88.2742Z" fill="#263238"/>
<path d="M50.455 64.0037C50.7131 64.2535 50.9444 64.5296 51.1453 64.8273C51.348 65.1258 51.5197 65.4441 51.6578 65.7774C51.941 66.447 52.1133 67.1583 52.1679 67.8834L52.1421 67.8225C52.384 68.1032 52.572 68.4261 52.6967 68.7749C52.8223 69.1173 52.9079 69.473 52.9518 69.8349C52.9942 70.1961 53.0029 70.5603 52.9775 70.923C52.9515 71.2845 52.903 71.644 52.8324 71.9994L52.7903 71.8544C52.945 72.0521 53.0501 72.284 53.0969 72.5306C53.1494 72.7564 53.1792 72.9869 53.1858 73.2186C53.1959 73.6727 53.1598 74.1266 53.0781 74.5734C52.9126 75.4516 52.6682 76.3131 52.3481 77.1474C51.7286 78.8156 50.9595 80.4243 50.0502 81.9538C48.2314 85.012 45.9556 87.7739 43.3016 90.1438C35.9915 97.1404 28.1712 102.345 26.6057 103.166C28.122 102.258 38.2308 94.309 42.96 89.7741C45.5561 87.412 47.8024 84.6921 49.6313 81.6964C50.5384 80.1963 51.3135 78.6202 51.9479 76.986C52.279 76.1812 52.5359 75.3478 52.7154 74.4962C52.8039 74.0761 52.8486 73.6479 52.8488 73.2186C52.8472 73.0087 52.8252 72.7995 52.7833 72.5938C52.7513 72.4057 52.6803 72.2264 52.575 72.0673L52.5165 71.9948L52.5329 71.9222C52.6086 71.5827 52.6633 71.2389 52.6967 70.8926C52.7271 70.547 52.7271 70.1993 52.6967 69.8537C52.6691 69.5091 52.6008 69.169 52.4931 68.8404C52.3917 68.5155 52.2332 68.2113 52.0251 67.9419L51.9994 67.9115V67.8787C51.9718 67.1715 51.8287 66.4735 51.5759 65.8125C51.4504 65.4794 51.2937 65.159 51.1079 64.8554C50.9217 64.5487 50.7028 64.2631 50.455 64.0037Z" fill="#263238"/>
<path d="M71.7656 99.45C71.9762 99.4968 72.2546 99.5506 72.5892 99.6067C72.987 99.6769 73.4667 99.7518 74.0143 99.8267H74.0517C77.9666 100.372 85.1574 101.029 89.367 100.554L90.1884 89.6266C89.7461 89.6266 88.8265 89.643 88.6463 89.6266C88.5036 89.6079 81.5936 88.4754 75.7599 87.2656L75.6874 87.2515C74.9667 87.1018 74.2834 86.9637 73.6259 86.842C72.8934 86.704 72.2219 86.5846 71.6252 86.4934C70.0644 86.2641 70.3148 99.127 71.7656 99.45Z" fill="#D3766A"/>
<path d="M53.7663 86.0066C53.668 87.4106 58.9143 87.6119 58.9143 87.6119C58.9143 87.6119 57.7443 88.2905 57.667 89.2499C57.5734 90.3567 59.1857 91.3559 59.1857 91.3559C58.7976 91.899 58.5823 92.5465 58.5679 93.2138C58.5843 94.2809 60.2059 95.1631 60.2059 95.1631C60.1252 95.8582 60.2971 96.5592 60.6903 97.138C61.8042 98.6426 64.9491 99.1036 66.7743 99.1855C68.7189 99.2721 71.59 99.6418 72.8583 99.6091L74.1243 87.0222C74.1243 87.0222 66.3227 84.041 64.1652 83.9568C62.2441 83.8889 53.9067 83.9708 53.7663 86.0066Z" fill="#D3766A"/>
<path d="M58.9166 87.6119C60.8986 87.4644 62.911 87.792 64.8509 88.129C64.8953 88.129 64.8813 88.2039 64.8392 88.1969C62.9133 87.8388 60.8471 87.9862 58.9119 87.7054C58.8995 87.7048 58.8879 87.6993 58.8795 87.6901C58.8712 87.6809 58.8669 87.6687 58.8675 87.6563C58.8681 87.6439 58.8736 87.6322 58.8829 87.6239C58.8921 87.6156 58.9042 87.6112 58.9166 87.6119Z" fill="#263238"/>
<path d="M59.2207 91.3161C59.6667 91.2346 60.1215 91.2126 60.5732 91.2506C61.0553 91.26 61.535 91.2779 62.0123 91.3044C62.9741 91.3582 63.9311 91.4308 64.8882 91.5384C64.9303 91.5384 64.935 91.6086 64.8882 91.6063C63.9335 91.5548 62.9741 91.5197 62.017 91.5103C61.5381 91.5103 61.0584 91.5103 60.5779 91.5103C60.1256 91.542 59.6712 91.5232 59.223 91.4542C59.2047 91.4545 59.1871 91.4475 59.1739 91.4348C59.1607 91.4221 59.1532 91.4046 59.1528 91.3863C59.1525 91.368 59.1595 91.3503 59.1722 91.3372C59.185 91.324 59.2024 91.3164 59.2207 91.3161Z" fill="#263238"/>
<path d="M60.1802 95.163C60.5569 95.053 61.0179 95.1396 61.4017 95.163C61.8392 95.1958 62.2768 95.2239 62.7121 95.2519C63.5872 95.3081 64.4624 95.3643 65.3375 95.3877C65.3797 95.3877 65.382 95.4579 65.3375 95.4579C64.4483 95.4368 63.5591 95.4274 62.6699 95.397C62.2324 95.383 61.7948 95.3666 61.3595 95.3479C60.9875 95.3315 60.5218 95.3479 60.1755 95.1981C60.1568 95.1981 60.1614 95.1677 60.1802 95.163Z" fill="#263238"/>
<path d="M78.1888 87.7991L75.6897 87.2609C75.6897 87.2609 76.6585 95.1209 74.0166 99.836L76.731 100.166C76.731 100.166 79.3471 95.2005 78.1888 87.7991Z" fill="#263238"/>
<path d="M79.3085 93.0362C79.5901 91.9077 78.8659 90.7552 77.691 90.462C76.5161 90.1689 75.3354 90.8461 75.0538 91.9746C74.7722 93.1031 75.4964 94.2556 76.6713 94.5487C77.8462 94.8419 79.0269 94.1647 79.3085 93.0362Z" fill="#263238"/>
<path d="M76.0502 90.6843C75.8148 90.8083 75.6071 90.9791 75.44 91.1861C75.2728 91.3932 75.1497 91.6321 75.0781 91.8884C75.0064 92.1447 74.9878 92.4129 75.0234 92.6766C75.059 92.9403 75.148 93.194 75.285 93.4221C75.5683 93.8933 76.0213 94.2381 76.551 94.3856C77.0806 94.5332 77.6467 94.4722 78.1328 94.2153C78.3684 94.0915 78.5763 93.9209 78.7437 93.7139C78.911 93.507 79.0344 93.2681 79.1063 93.0118C79.1781 92.7555 79.1969 92.4872 79.1615 92.2234C79.1261 91.9596 79.0372 91.7058 78.9003 91.4775C78.6166 91.0062 78.1631 90.6613 77.6331 90.5138C77.1031 90.3662 76.5367 90.4273 76.0502 90.6843Z" fill="#37474F"/>
<path d="M78.9949 92.934C79.2469 91.9247 78.6004 90.894 77.551 90.6319C76.5015 90.3699 75.4464 90.9757 75.1944 91.985C74.9424 92.9944 75.5888 94.0251 76.6383 94.2871C77.6877 94.5492 78.7428 93.9434 78.9949 92.934Z" fill="white"/>
<path opacity="0.5" d="M76.4993 90.6399C76.4759 91.6438 76.4385 93.2935 76.4268 94.2131C76.7109 94.3174 77.0146 94.3574 77.316 94.3301L78.1373 90.8739C77.896 90.7221 77.6254 90.6229 77.3432 90.5825C77.061 90.5422 76.7735 90.5618 76.4993 90.6399Z" fill="#EBEBEB"/>
<path opacity="0.5" d="M76.0502 90.8293C75.8661 90.9357 75.7016 91.0726 75.5635 91.2342L75.7811 93.8339C75.8643 93.9076 75.9535 93.9741 76.0479 94.0328C76.0502 93.2115 76.0502 91.7115 76.0502 90.8293Z" fill="#EBEBEB"/>
<path d="M78.397 91.7279L78.4157 91.7583L78.6731 91.6203L78.6544 91.5875L78.397 91.7279Z" fill="#263238"/>
<path d="M78.6101 92.4978L78.9049 92.5024V92.465L78.6101 92.4603V92.4978Z" fill="#263238"/>
<path d="M78.3948 93.2232L78.6522 93.3706L78.6709 93.3402L78.4158 93.1904L78.3948 93.2232Z" fill="#263238"/>
<path d="M77.8333 93.7404L77.9807 93.9931L78.0134 93.9744L77.866 93.724L77.8333 93.7404Z" fill="#263238"/>
<path d="M77.0703 94.1989L77.1101 94.2013V93.9135H77.0727L77.0703 94.1989Z" fill="#263238"/>
<path d="M76.167 93.9393L76.1998 93.958L76.3495 93.7123L76.3168 93.6936L76.167 93.9393Z" fill="#263238"/>
<path d="M75.512 93.2794L75.5307 93.3098L75.7881 93.1718L75.7694 93.1414L75.512 93.2794Z" fill="#263238"/>
<path d="M75.2803 92.4323L75.5751 92.4393V92.4019L75.2803 92.3972V92.4323Z" fill="#263238"/>
<path d="M75.5142 91.5595L75.7692 91.7069L75.7879 91.6765L75.5329 91.5291L75.5142 91.5595Z" fill="#263238"/>
<path d="M76.1719 90.9253L76.3193 91.1757L76.3521 91.157L76.2046 90.9066L76.1719 90.9253Z" fill="#263238"/>
<path d="M77.075 90.9838L77.1124 90.9862L77.1147 90.7007L77.075 90.6984V90.9838Z" fill="#263238"/>
<path d="M77.8354 91.1873L77.8682 91.2061L78.018 90.9604L77.9852 90.9417L77.8354 91.1873Z" fill="#263238"/>
<path d="M78.5329 91.6437L76.9324 92.4323L77.026 92.589L78.5587 91.6858L78.5329 91.6437Z" fill="#455A64"/>
<path d="M77.0633 91.1781L76.9978 92.5704L77.1827 92.5681L77.1125 91.1781H77.0633Z" fill="#263238"/>
<path d="M77.0609 92.3972C77.0538 92.4009 77.0476 92.406 77.0425 92.4121C77.0375 92.4183 77.0337 92.4255 77.0315 92.4331C77.0294 92.4408 77.0288 92.4488 77.0298 92.4568C77.0308 92.4647 77.0335 92.4723 77.0375 92.4791C77.0417 92.4864 77.0472 92.4927 77.0538 92.4978C77.0604 92.5029 77.0679 92.5067 77.076 92.5089C77.084 92.511 77.0924 92.5116 77.1007 92.5105C77.1089 92.5094 77.1169 92.5067 77.1241 92.5025C77.1312 92.4989 77.1375 92.4938 77.1425 92.4876C77.1476 92.4814 77.1513 92.4743 77.1535 92.4666C77.1557 92.459 77.1563 92.4509 77.1553 92.443C77.1542 92.4351 77.1516 92.4275 77.1475 92.4206C77.1388 92.4065 77.1249 92.3961 77.1089 92.3918C77.0928 92.3874 77.0756 92.3894 77.0609 92.3972Z" fill="#C7C7C7"/>
<path d="M69.0301 83.538L69.0605 83.5568C69.5707 83.7803 70.0943 83.9718 70.6283 84.1301C71.2274 84.3196 71.9434 84.5255 72.7343 84.7408C73.8178 85.0357 75.0556 85.3445 76.3567 85.6511L76.4292 85.6698C80.0515 86.5192 84.1512 87.3312 86.896 87.6494C88.1128 87.7922 91.1431 87.7617 95.4417 87.4435L94.3934 78.7527C91.7539 78.2847 89.7134 77.9455 89.1611 77.7489C89.0512 77.7115 84.1442 75.8324 79.2395 73.9324L79.1272 73.8902C77.9993 73.455 76.8738 73.0174 75.8114 72.6032L74.0377 71.9012L73.0081 71.5128L71.3912 70.8716C71.3493 70.8559 71.3044 70.8498 71.2598 70.8539C71.2152 70.8579 71.1721 70.872 71.1338 70.895C70.4809 71.2484 69.7415 73.703 69.2384 76.3823C68.637 79.5975 68.3749 83.1051 69.0301 83.538Z" fill="#AD6359"/>
<path d="M61.4321 81.2308C63.6317 82.6675 69.2782 83.8445 70.75 83.6059C72.2219 83.3672 74.5432 73.834 73.5908 72.6383C72.6384 71.4425 64.8579 67.1791 62.1903 67.4365C59.5227 67.6939 59.1553 79.7425 61.4321 81.2308Z" fill="#AD6359"/>
<path d="M66.3742 67.86C66.2876 69.2477 65.1527 69.1072 65.1527 69.1072C65.1527 69.1072 67.7758 69.7484 67.8975 71.2835C68.0098 72.76 65.8079 72.6734 65.6511 72.6711C65.7892 72.7062 68.183 73.359 68.1455 74.9128C68.1081 76.5274 65.9108 76.0617 65.7704 76.0313C65.8898 76.1039 67.4623 77.1147 67.1744 78.2871C66.6643 80.3042 62.5693 77.8355 60.9547 78.3081C60.9547 78.3081 61.4438 81.1395 61.4391 81.2261C61.4391 81.2261 57.4962 78.9563 56.9791 76.7403C56.8992 76.4187 56.9315 76.0794 57.0706 75.7785C57.2097 75.4777 57.4474 75.2334 57.7442 75.086C57.7442 75.086 56.3917 74.4963 56.38 73.2725C56.38 72.643 57.3792 72.0791 57.3792 72.0791C57.3792 72.0791 56.3168 71.5596 56.3753 70.4715C56.4198 69.601 57.419 69.1704 57.419 69.1704C57.419 69.1704 51.569 67.6682 51.803 66.091C52.175 63.3719 64.4928 67.2867 65.4592 66.559C65.9179 66.1963 66.4116 67.2587 66.3742 67.86Z" fill="#AD6359"/>
<path d="M57.5639 69.0838C57.5598 69.0824 57.5562 69.0797 57.5537 69.0761C57.5512 69.0726 57.5498 69.0683 57.5498 69.0639C57.5498 69.0595 57.5512 69.0553 57.5537 69.0517C57.5562 69.0482 57.5598 69.0455 57.5639 69.044C59.9835 68.3186 62.8664 68.2648 65.2649 69.1002C65.3444 69.1283 65.5784 69.4372 65.4989 69.4114C63.2221 68.782 60.2152 68.7281 57.5639 69.0838Z" fill="#263238"/>
<path d="M57.3302 72.072C57.3021 72.072 57.2951 72.0299 57.3302 72.0205C59.8293 71.2857 63.0772 71.3185 65.7308 72.6032C65.822 72.6476 65.8595 72.7787 65.7495 72.7365C63.9196 72.0088 59.724 71.7397 57.3302 72.072Z" fill="#263238"/>
<path d="M65.9226 76.1881C63.3322 75.0485 60.6365 74.8566 57.8379 75.0555C57.8005 75.0555 57.8005 75.0064 57.8379 74.9947C59.1811 74.5267 60.9782 74.5829 62.3705 74.749C63.6677 74.876 64.9088 75.3416 65.9694 76.0992C66.0068 76.1296 65.9881 76.2138 65.9226 76.1881Z" fill="#263238"/>
<path d="M65.1925 69.0839C65.2861 69.1166 65.0263 69.2828 65.1199 69.3179C66.1308 69.7157 67.9069 70.5183 67.7688 71.4239C67.6565 72.1422 66.6129 72.4886 66.1589 72.4652L65.0216 72.4043L66.07 72.8583C66.5375 73.0542 66.9699 73.3254 67.35 73.6609C67.535 73.8064 67.6872 73.9894 67.7965 74.1979C67.9058 74.4064 67.9697 74.6357 67.9841 74.8707C67.9955 75.0884 67.9321 75.3034 67.8044 75.4801C67.6767 75.6567 67.4924 75.7844 67.2821 75.8418C66.8061 75.9571 66.3088 75.9507 65.836 75.8231L64.5209 75.5095L65.6558 76.2326C65.9729 76.4316 66.2625 76.6716 66.5169 76.9463C66.7695 77.1965 66.9428 77.5155 67.0153 77.8635C67.0408 78.0214 67.0216 78.1833 66.96 78.3309C66.8984 78.4785 66.7968 78.606 66.6667 78.6989C66.3455 78.8654 65.983 78.9353 65.623 78.9002C64.8432 78.8398 64.0693 78.7177 63.3088 78.5351C62.9203 78.4556 62.5319 78.376 62.1388 78.3152C61.7477 78.2321 61.3435 78.2321 60.9524 78.3152C61.3455 78.2747 61.7428 78.3105 62.1224 78.4205C62.5062 78.5117 62.8852 78.6194 63.2666 78.727C64.0296 78.9651 64.8129 79.132 65.6066 79.2254C66.0369 79.2821 66.4744 79.2122 66.8656 79.0242C67.0672 78.8983 67.2277 78.7164 67.3275 78.5007C67.4272 78.285 67.4619 78.0448 67.4272 77.8097C67.3511 77.3751 67.1465 76.9733 66.8398 76.6561C66.5603 76.3457 66.2417 76.0728 65.8921 75.8441L65.7143 76.256C66.2697 76.4179 66.8578 76.4316 67.4201 76.2957C67.7306 76.2106 68.0019 76.0204 68.1877 75.7575C68.3611 75.4946 68.4516 75.1856 68.4474 74.8707C68.4298 74.5729 68.3491 74.2823 68.2108 74.0181C68.0724 73.7539 67.8795 73.5221 67.6448 73.338C67.221 72.9748 66.7404 72.6838 66.2221 72.4769L66.1331 72.8676C66.7088 72.8793 67.9186 72.6173 68.2391 71.5268C68.4263 70.0386 65.7003 69.2009 65.1925 69.0839Z" fill="#263238"/>
<path d="M73.5908 72.6383C73.5908 72.6383 70.4341 66.1003 68.1503 65.1667C65.8664 64.233 61.4391 67.3967 60.0047 68.8101C58.0251 70.7569 59.621 71.9808 61.1045 71.7444C62.8221 71.473 65.1527 70.2281 65.3165 70.1439C65.3165 70.1439 65.2697 74.4003 67.8905 76.0617C70.5113 77.7231 73.5908 72.6383 73.5908 72.6383Z" fill="#AD6359"/>
<path d="M63.1637 66.4561C62.2436 67.0508 61.3663 67.7092 60.5382 68.4263C60.121 68.7696 59.7567 69.1725 59.4571 69.6221C59.0219 70.2983 59.0874 71.239 59.9251 71.5268C60.6926 71.8006 61.5069 71.569 62.2768 71.363C63.3248 71.0747 64.3263 70.6381 65.2509 70.0667L65.4241 69.9567L65.4101 70.1603C65.3347 71.1887 65.4792 72.2214 65.8338 73.1897C66.1885 74.158 66.7452 75.0397 67.4669 75.7763C65.8874 74.391 65.0918 72.2335 65.2065 70.1486L65.3656 70.2445C64.0435 71.0729 61.3876 72.2756 59.8479 71.7351C58.8885 71.3958 58.7645 70.31 59.291 69.5378C59.6112 69.0808 59.9976 68.6738 60.4376 68.3304C61.2874 67.6291 62.1963 67.0027 63.1543 66.4584L63.1637 66.4561Z" fill="#263238"/>
<path d="M70.551 84.4131C70.551 84.4131 71.3887 84.6284 72.6898 84.9537C76.5555 85.9201 84.5208 87.8506 86.9638 87.9793H87.1182C88.6556 88.0097 91.8497 87.9535 95.4907 87.7453L94.3746 78.4859C91.9433 78.0717 90.0549 77.7488 89.5986 77.5242L89.5331 77.4938C88.3163 76.9368 79.7051 73.6725 75.9143 72.2475L74.1453 71.5806L74.0517 71.9082L73.7475 72.9963L70.785 83.5894L70.6329 84.1276L70.551 84.4131Z" fill="#EBEBEB"/>
<path d="M72.4231 86.0067C72.4231 86.0067 83.7721 87.86 86.9592 87.984H87.1136C88.651 88.0144 91.8451 87.9582 95.4861 87.75L94.37 78.4906C91.9387 78.0764 90.0503 77.7535 89.594 77.5289L89.5285 77.4984C88.0122 76.7777 76.0641 71.6484 76.0641 71.6484L75.9097 72.2615L75.8161 72.6102L72.739 84.7478L72.6852 84.9537L72.4231 86.0067Z" fill="#37474F"/>
<path d="M79.2793 73.7101C79.2302 74.2366 79.0874 74.7467 78.9915 75.2615C78.8956 75.7763 78.7832 76.2887 78.6662 76.8012C78.4322 77.784 78.1982 78.7645 77.9642 79.7426C77.7302 80.7207 77.4775 81.7012 77.2295 82.6769C76.9814 83.6527 76.7615 84.7338 76.4339 85.7189C76.4326 85.7234 76.4305 85.7276 76.4277 85.7312C76.4249 85.7349 76.4213 85.7379 76.4173 85.7402C76.4133 85.7425 76.4089 85.7439 76.4043 85.7445C76.3997 85.7451 76.395 85.7447 76.3906 85.7435C76.3861 85.7423 76.382 85.7402 76.3783 85.7373C76.3747 85.7345 76.3716 85.731 76.3693 85.727C76.3671 85.7229 76.3656 85.7185 76.365 85.7139C76.3644 85.7093 76.3648 85.7047 76.366 85.7002C76.5134 84.6636 76.7942 83.641 77.0212 82.6231C77.2482 81.6052 77.4705 80.6154 77.6975 79.6115C77.9245 78.6077 78.1655 77.6062 78.3995 76.6093C78.5212 76.1203 78.6475 75.6312 78.7879 75.1492C78.9283 74.6671 79.0219 74.157 79.2138 73.689C79.2325 73.6399 79.2816 73.6703 79.2793 73.7101Z" fill="#263238"/>
<path d="M83.3298 61.2003C83.1286 61.5981 82.9203 62.059 82.7191 62.5575C81.3338 65.9434 80.0374 71.171 80.8307 71.7209C81.2247 71.9757 81.6317 72.21 82.0498 72.4229C82.7963 72.816 83.7721 73.2887 84.8859 73.8035L84.9748 73.8433C87.3663 74.9431 89.6385 75.9329 92.388 76.9531L95.2217 65.3397C93.3029 64.2446 85.8336 60.3672 85.2673 60.0326L84.7081 59.7167C84.3688 59.5108 83.8657 60.1379 83.3298 61.2003Z" fill="#FFC4C0"/>
<path d="M81.9328 57.6178C80.1053 57.1498 78.0484 56.4478 76.0828 56.6654C74.1172 56.883 72.7062 59.6162 72.7741 60.372C72.8419 61.1278 73.9885 65.6978 75.9565 65.52C77.9244 65.3421 76.4245 61.8836 76.4666 61.4671C76.5087 61.0506 76.5345 60.5311 76.9089 60.5311C77.2833 60.5311 84.0552 63.056 84.0552 63.056L81.9328 57.6178Z" fill="#FFC4C0"/>
<path d="M81.8298 57.901C81.7198 57.901 76.2606 56.2887 74.295 56.497C72.3294 56.7052 70.9184 59.4477 70.9839 60.1918C71.0494 60.9359 72.196 65.5177 74.1663 65.3398C76.1366 65.162 74.6343 61.7058 74.6741 61.2893C74.7138 60.8728 74.7419 60.3533 75.1163 60.3533C75.4907 60.3533 82.265 62.8781 82.265 62.8781L81.8298 57.901Z" fill="#FFC4C0"/>
<path d="M74.8121 65.038C75.0274 64.7057 75.0297 64.233 75.0461 63.8446C75.0511 63.4211 74.9895 62.9994 74.8636 62.595C74.7244 62.2496 74.6133 61.8936 74.5313 61.5303C74.5021 61.1655 74.5657 60.7992 74.7162 60.4656C74.8425 60.1754 75.1397 60.2456 75.3971 60.3112C75.7755 60.4204 76.1473 60.5508 76.511 60.7019C76.9041 60.8564 77.2925 61.0202 77.681 61.1699C78.0909 61.3212 78.491 61.4978 78.879 61.6988C78.9071 61.7152 78.8931 61.7643 78.858 61.7549C78.5062 61.6526 78.1602 61.5316 77.8214 61.3922C77.4298 61.2503 77.0398 61.1107 76.6514 60.9734C76.284 60.8494 75.926 60.7019 75.5562 60.5826C75.3905 60.504 75.2084 60.4663 75.0251 60.4726C74.8753 60.5194 74.8355 60.8938 74.8121 61.0179C74.7601 61.3784 74.8154 61.7463 74.9712 62.0755C75.1055 62.419 75.2058 62.7748 75.2708 63.1379C75.3328 63.4799 75.3328 63.8302 75.2708 64.1722C75.1753 64.4827 75.0426 64.7805 74.8753 65.059C74.8542 65.1105 74.7887 65.0754 74.8121 65.038Z" fill="#263238"/>
<path d="M88.5293 62.5271C88.5293 62.5271 82.6371 58.0273 81.4157 57.1451C78.9633 55.362 69.0137 52.2756 67.6705 52.2498C66.3273 52.2241 66.0746 55.0087 72.8396 57.2925C76.4057 58.4953 77.1873 60.4094 77.2177 61.5045C77.2481 62.5996 76.3823 64.722 74.5454 64.832C72.7085 64.942 71.2835 62.3703 69.5729 62.2206C67.8624 62.0708 69.2453 65.059 70.5885 66.7414C71.9316 68.4239 74.2202 69.7039 75.8582 70.1602C77.4962 70.6165 82.5857 72.306 82.5857 72.306L88.5293 62.5271Z" fill="#FFC4C0"/>
<path d="M72.1563 63.7346C72.8934 64.2026 73.7358 64.8344 74.6484 64.7899C75.561 64.7454 76.1483 64.0879 76.5204 63.2759C76.8924 62.4639 77.0703 61.563 76.7801 60.7019C76.4986 59.9288 76.0007 59.253 75.3457 58.755C74.5435 58.1515 73.6584 57.6668 72.7179 57.3159C72.6757 57.2996 72.7062 57.2387 72.7483 57.2551C73.6258 57.557 76.3425 58.404 77.0703 60.6762C77.3674 61.6122 77.1545 62.4733 76.7824 63.304C76.4408 64.0692 75.9096 64.825 75.0274 64.9748C73.951 65.1573 72.9425 64.357 72.1071 63.7673C72.072 63.7392 72.1188 63.7088 72.1563 63.7346Z" fill="#263238"/>
<path d="M95.6664 63.538L92.0605 78.3127C91.651 78.2027 91.2368 78.0787 90.8226 77.9664C90.605 77.9056 90.3827 77.84 90.1604 77.7698C90.02 77.7324 89.8772 77.6879 89.7368 77.6411C89.5262 77.5803 89.3156 77.5124 89.1097 77.4469C88.4826 77.248 87.8672 77.0374 87.2751 76.8175C86.4468 76.5109 84.5467 74.5945 84.5467 74.5945C82.7847 73.9439 81.5796 73.4759 81.5796 73.4759L82.0476 72.4417L82.1693 72.1702L86.2128 63.2782L86.9522 61.6402L87.0599 61.4062L87.1722 61.1582L87.5536 60.3181L90.2423 61.9702C90.2423 61.9702 92.1985 61.2892 93.1602 61.8836C93.9605 62.375 94.8123 62.9459 95.6664 63.538Z" fill="#3C0A6D"/>
<path opacity="0.1" d="M91.2929 71.2951C91.1567 71.1814 90.9899 71.1107 90.8136 71.0919C90.6373 71.0731 90.4594 71.107 90.3024 71.1894C90.1453 71.2717 90.0162 71.3988 89.9315 71.5545C89.8467 71.7103 89.81 71.8877 89.826 72.0642C89.8421 72.2408 89.9102 72.4087 90.0216 72.5466C90.1331 72.6845 90.283 72.7862 90.4523 72.8389C90.6216 72.8915 90.8027 72.8928 90.9728 72.8425C91.1428 72.7922 91.2941 72.6926 91.4075 72.5563C91.5594 72.3738 91.6326 72.1384 91.6111 71.902C91.5896 71.6655 91.4751 71.4472 91.2929 71.2951ZM86.5216 67.303C86.3859 67.1888 86.2194 67.1175 86.0431 67.098C85.8669 67.0785 85.6888 67.1117 85.5314 67.1935C85.374 67.2752 85.2444 67.4018 85.1591 67.5572C85.0737 67.7127 85.0363 67.8899 85.0517 68.0666C85.0671 68.2433 85.1346 68.4114 85.2456 68.5497C85.3566 68.688 85.5061 68.7903 85.6753 68.8436C85.8444 68.8969 86.0256 68.8988 86.1958 68.849C86.366 68.7993 86.5177 68.7002 86.6316 68.5643C86.7834 68.3821 86.857 68.1473 86.8364 67.911C86.8158 67.6747 86.7027 67.4562 86.5216 67.303ZM91.8825 65.7399C91.7465 65.6263 91.5799 65.5556 91.4038 65.5367C91.2276 65.5177 91.0497 65.5515 90.8927 65.6336C90.7357 65.7157 90.6066 65.8425 90.5216 65.998C90.4366 66.1534 90.3996 66.3306 90.4153 66.5071C90.431 66.6836 90.4987 66.8515 90.6097 66.9895C90.7208 67.1276 90.8703 67.2296 91.0393 67.2827C91.2084 67.3359 91.3893 67.3377 91.5594 67.288C91.7295 67.2383 91.881 67.1393 91.9949 67.0035C92.1465 66.8206 92.2198 66.5852 92.1988 66.3486C92.1778 66.1119 92.0641 65.8931 91.8825 65.7399ZM87.1113 61.7479C87.0633 61.7085 87.0116 61.674 86.9568 61.6449L86.2174 63.2829C86.4156 63.3588 86.6343 63.3618 86.8346 63.2915C87.0349 63.2212 87.2037 63.0821 87.311 62.8989C87.4183 62.7158 87.4571 62.5005 87.4205 62.2914C87.384 62.0824 87.2744 61.8931 87.1113 61.7572V61.7479ZM90.53 77.0585C90.44 76.9827 90.336 76.9255 90.2239 76.89C90.1118 76.8545 89.9937 76.8415 89.8766 76.8517C89.7594 76.8619 89.6454 76.8951 89.5411 76.9495C89.4368 77.0039 89.3442 77.0783 89.2687 77.1685C89.199 77.2507 89.1451 77.3451 89.1096 77.4469C89.3155 77.5124 89.5261 77.5803 89.7367 77.6411C89.8771 77.6879 90.0199 77.7324 90.1603 77.7698C90.3826 77.84 90.6049 77.9056 90.8225 77.9664C90.8645 77.8029 90.8592 77.6308 90.8075 77.4702C90.7557 77.3095 90.6595 77.1667 90.53 77.0585ZM85.7564 73.0641C85.6686 72.9899 85.5667 72.9342 85.4569 72.9003C85.3912 72.8771 85.3228 72.8629 85.2533 72.8582C85.1108 72.8456 84.9674 72.8678 84.8353 72.9228C84.7033 72.9778 84.5866 73.064 84.4951 73.1741C84.381 73.3098 84.3096 73.4763 84.2901 73.6525C84.2706 73.8288 84.3038 74.0069 84.3856 74.1643C84.4673 74.3216 84.5939 74.4512 84.7494 74.5366C84.9048 74.622 85.0821 74.6593 85.2587 74.6439C85.4354 74.6285 85.6035 74.5611 85.7418 74.4501C85.8802 74.3391 85.9824 74.1895 86.0357 74.0204C86.089 73.8512 86.0909 73.6701 86.0412 73.4999C85.9915 73.3296 85.8924 73.178 85.7564 73.0641Z" fill="black"/>
<path d="M89.9732 62.5809C89.8328 63.0887 89.5941 63.5708 89.4045 64.0645C89.215 64.5582 89.0067 65.045 88.7961 65.5317C88.3913 66.4677 87.9725 67.4037 87.5466 68.3233C87.1207 69.2429 86.6972 70.1766 86.2689 71.1032C85.8407 72.0299 85.4265 73.0571 84.9094 73.9767C84.9046 73.9839 84.8974 73.9893 84.8891 73.9918C84.8809 73.9943 84.8719 73.9939 84.8639 73.9905C84.8559 73.9872 84.8493 73.9812 84.8452 73.9736C84.8412 73.966 84.8399 73.9572 84.8415 73.9487C85.1762 72.9495 85.6465 71.9831 86.0607 71.0143C86.4749 70.0455 86.8797 69.1049 87.2915 68.1501C87.7034 67.1954 88.1222 66.2454 88.5528 65.3C88.7657 64.832 88.9833 64.3757 89.2127 63.9194C89.442 63.4631 89.6385 62.9834 89.9147 62.5458C89.9357 62.5084 89.9825 62.5458 89.9732 62.5809Z" fill="#263238"/>
<path d="M107.067 108.709H86.5847V107.394L104.146 106.491L98.1724 85.0566H95.6592V82.8383H99.8572L107.067 108.709Z" fill="#DBDBDB"/>
<path d="M97.8519 82.8383L97.0609 85.0566H95.6616V82.8383H97.8519Z" fill="#C7C7C7"/>
<path d="M96.5636 60.5369L94.3118 60.1285L86.5541 102.901L88.8059 103.309L96.5636 60.5369Z" fill="#C7C7C7"/>
<path d="M98.9142 71.2202L94.7631 94.1148L88.8054 103.309L96.5625 60.5358L98.9142 71.2202Z" fill="#DBDBDB"/>
<path d="M82.3587 108.709V106.381L61.8767 107.394V108.709H82.3587Z" fill="#DBDBDB"/>
<path d="M8.92236 108.709C40.6855 108.567 76.3144 108.564 108.078 108.709C76.3144 108.854 40.6855 108.852 8.92236 108.709Z" fill="#263238"/>
</g>
<defs>
<filter id="filter0_d_1_2297" x="-4" y="0" width="125" height="125" filterUnits="userSpaceOnUse" color-interpolation-filters="sRGB">
<feFlood flood-opacity="0" result="BackgroundImageFix"/>
<feColorMatrix in="SourceAlpha" type="matrix" values="0 0 0 0 0 0 0 0 0 0 0 0 0 0 0 0 0 0 127 0" result="hardAlpha"/>
<feOffset dy="4"/>
<feGaussianBlur stdDeviation="2"/>
<feComposite in2="hardAlpha" operator="out"/>
<feColorMatrix type="matrix" values="0 0 0 0 0 0 0 0 0 0 0 0 0 0 0 0 0 0 0.25 0"/>
<feBlend mode="normal" in2="BackgroundImageFix" result="effect1_dropShadow_1_2297"/>
<feBlend mode="normal" in="SourceGraphic" in2="effect1_dropShadow_1_2297" result="shape"/>
</filter>
</defs>
</svg>
